<?xml version="1.0" encoding="UTF-8"?>
<svg width="72px" height="72px" viewBox="0 0 72 72" version="1.1" xmlns="http://www.w3.org/2000/svg" xmlns:xlink="http://www.w3.org/1999/xlink">
    <title>BD653489-BDB1-4E6E-9173-407B9440290A</title>
    <defs>
        <linearGradient x1="24.229229%" y1="86.5011769%" x2="75.7687879%" y2="18.2348295%" id="linearGradient-1">
            <stop stop-color="#E15B11" offset="0%"></stop>
            <stop stop-color="#EB9845" offset="54%"></stop>
            <stop stop-color="#FFCE8E" offset="65%"></stop>
            <stop stop-color="#FFB677" offset="73%"></stop>
            <stop stop-color="#EF7D3F" offset="100%"></stop>
        </linearGradient>
        <linearGradient x1="29.5935949%" y1="96.3094243%" x2="68.9884673%" y2="5.92855231%" id="linearGradient-2">
            <stop stop-color="#E15B11" offset="0%"></stop>
            <stop stop-color="#EB9845" offset="54%"></stop>
            <stop stop-color="#FFCE8E" offset="64%"></stop>
            <stop stop-color="#FFB677" offset="72%"></stop>
            <stop stop-color="#EF7D3F" offset="100%"></stop>
        </linearGradient>
        <linearGradient x1="27.9265631%" y1="81.5970581%" x2="75.6425398%" y2="18.2453375%" id="linearGradient-3">
            <stop stop-color="#EB9845" offset="0%"></stop>
            <stop stop-color="#FFB677" offset="37%"></stop>
            <stop stop-color="#F8B789" offset="62%"></stop>
            <stop stop-color="#EF8F32" offset="84%"></stop>
            <stop stop-color="#F7BF88" offset="100%"></stop>
        </linearGradient>
    </defs>
    <g id="Desktop-UI" stroke="none" stroke-width="1" fill="none" fill-rule="evenodd">
        <g id="Class-Overview" transform="translate(-54.000000, -15.000000)">
            <g id="header_rugby_master_logo" transform="translate(54.000000, 15.000000)">
                <path d="M26.1482333,16.89 C25.5467555,15.8714779 25.0188976,14.8112395 24.5687,13.7174 C24.3430398,14.2890758 24.1494064,14.8728806 23.9887,15.4661 C24.3879333,16.1669333 25.1071333,17.3530333 25.8949667,18.3071333 C25.9607,17.8360444 26.0451222,17.3636667 26.1482333,16.89 Z M29.4213667,9.49596667 C29.3079008,8.72887813 29.2340141,7.95645522 29.2,7.18176667 C28.8777778,7.4853 28.5629667,7.79688889 28.2555667,8.11653333 C28.3674635,8.94036212 28.5213639,9.75793821 28.7166667,10.5660667 C28.9402889,10.2064667 29.1751889,9.84976667 29.4213667,9.49596667 L29.4213667,9.49596667 Z M48.3448333,18.5236667 C49.2042,17.5386333 50.0046,16.2201 50.4357333,15.4661 C50.2750253,14.8731977 50.0813916,14.2897147 49.8557333,13.7183667 C49.0882,15.5279667 48.4531,16.6328667 48.0548333,17.2418667 C48.1679333,17.6691333 48.2636333,18.0964 48.3448333,18.5236667 Z M39.0754667,23.7900667 L37.5201,23.7900667 L37.5201,22.3565 L39.0754667,22.3565 L39.0754667,21.6131333 L37.5201,21.6131333 L37.5201,20.1766667 L39.0754667,20.1766667 L39.0754667,19.4333 L37.5201,19.4333 L37.5201,18.0026333 L39.0754667,18.0026333 L39.0754667,17.2583 L37.5201,17.2583 L37.5201,15.8266667 L39.0754667,15.8266667 L39.0754667,15.0823333 L35.3489667,15.0823333 L35.3489667,15.8266667 L36.9043333,15.8266667 L36.9043333,17.2592667 L35.3489667,17.2592667 L35.3489667,18.0036 L36.9043333,18.0036 L36.9043333,19.4371667 L35.3489667,19.4371667 L35.3489667,20.1766667 L36.9043333,20.1766667 L36.9043333,21.6102333 L35.3489667,21.6102333 L35.3489667,22.3536 L36.9043333,22.3536 L36.9043333,23.7871667 L35.3489667,23.7871667 L35.3489667,24.5305333 L39.0754667,24.5305333 L39.0754667,23.7900667 Z M27.46,12.9402 C27.1125278,11.9962421 26.828976,11.02997 26.6112667,10.0479333 C26.2799893,10.4947493 25.9715499,10.9580536 25.6871333,11.4360667 C26.0338812,12.4131744 26.4416505,13.3675416 26.9080333,14.2935333 C27.0733333,13.8392 27.2608667,13.3868 27.46,12.9402 Z M31.5045333,6.97103333 C31.5586667,6.12906667 31.6843333,5.29483333 31.7326667,5 C31.5528667,5.145 30.6345333,5.99566667 30.6345333,5.99566667 C30.6345333,6.69263333 30.6770667,7.3229 30.7225,7.82363333 C30.9751222,7.53298889 31.2364444,7.24878889 31.5064667,6.97103333 L31.5045333,6.97103333 Z M25.8427667,22.6184667 C25.7925,22.1225667 25.7586667,21.6179667 25.7461,21.1017667 C25.5150667,20.8775 25.2376333,20.5933 24.9254,20.2404667 C24.3862951,19.6474314 23.8937658,19.0136715 23.4522,18.3448333 C23.3806667,18.9905667 23.3381333,19.6691667 23.3207333,20.3748333 C23.7528333,20.8253 24.8306667,21.8973333 25.8427667,22.6184667 Z M39.3654667,38.4515 L39.1721333,38.5897333 L38.0662667,39.3282667 L41.0416667,41.3138 C41.5178813,41.629686 42.076809,41.7978351 42.6482667,41.7971355 L44.8087667,41.7971355 L39.3654667,38.4515 Z M42.2596667,36.1189333 C41.7995333,36.5481333 41.3223222,36.9609 40.8280333,37.3572333 C42.0537667,37.6530333 43.2853,37.8405667 43.9880667,37.9372333 C44.6724667,37.5428333 45.3781333,36.9270667 46.0664,36.1266667 C45.6710333,36.1556667 45.0591333,36.1866 44.1978333,36.1953 C43.5231,36.1991667 42.8367667,36.1634 42.2596667,36.1189333 Z M50.2085667,27.8317 C49.9089,27.9738 49.4690667,28.1719667 48.8349333,28.4349 C48.2172333,28.6910667 47.6846,28.8728 47.2612,29.0013667 C47.0284126,29.5756828 46.7664265,30.1377269 46.4762667,30.6853 C48.0084333,30.4745667 49.0234333,30.1604 49.5183667,29.9806 C49.7735667,29.2884667 50.0055667,28.5712 50.2085667,27.8317 L50.2085667,27.8317 Z M48.6222667,32.1024333 C47.5220425,32.3763271 46.4021554,32.5641061 45.2727667,32.6640667 C44.8957667,33.2066889 44.4926667,33.7296556 44.0634667,34.2329667 C45.2015676,34.3110522 46.3441681,34.2952097 47.4796667,34.1856 C47.8986199,33.5127911 48.2800682,32.8173417 48.6222667,32.1024333 Z M26.3116,25.3444667 C25.6581333,24.9636 24.6682667,24.3004667 23.3932333,23.1820333 C23.4512333,23.9070333 23.5411333,24.6252667 23.661,25.3309333 C24.632346,25.9269612 25.6620347,26.4222094 26.7340333,26.8089667 C26.5735667,26.3333667 26.4327556,25.8452 26.3116,25.3444667 Z M48.0248667,26.6862 C48.9764555,26.318118 49.8930045,25.8651817 50.7634333,25.3328667 C50.8833,24.6239778 50.9725556,23.9070333 51.0312,23.1820333 C50.193788,23.9288301 49.2959014,24.6049125 48.3467667,25.2033333 C48.2591222,25.7098667 48.1518222,26.2041556 48.0248667,26.6862 Z M48.0828667,20.8862 C48.0649977,18.9066146 47.7187385,16.9437171 47.0582,15.0775 C47.7406667,14.0499333 48.4038,12.3466667 48.7353667,11.4360667 C48.4453667,10.9527333 48.1379667,10.4906667 47.8122,10.0498667 C47.5157947,11.355922 47.1103051,12.6347986 46.6,13.8730333 C46.2561771,13.0497515 45.8600002,12.2493256 45.4139,11.4766667 C45.7735,10.6066667 46.0364333,9.0542 46.1717667,8.11653333 C45.8643667,7.79431111 45.5495556,7.48304444 45.2273333,7.18273333 C45.1820149,8.30106619 45.0455851,9.41384197 44.8194,10.51 C44.4372863,9.92293887 44.025935,9.35543542 43.5869,8.80963333 C43.7166083,7.87815116 43.7837809,6.93902707 43.7879667,5.99856667 L43.2253667,5.43983333 C43.0475,5.29 42.8686667,5.145 42.6898333,5 C42.7575,5.4205 42.9885333,6.9604 42.9353667,8.03726667 C42.2737006,7.29027826 41.5566573,6.59423893 40.7903333,5.95506667 C40.7903333,5.95506667 40.7352333,6.7429 41.2881667,7.3084 C41.641,7.6651 41.9793333,8.03533333 42.3051,8.41523333 C41.5313039,8.32423285 40.7526101,8.28129493 39.9735,8.28666667 C40.2572412,8.52948992 40.5234189,8.7921143 40.7700333,9.07256667 C41.4857573,9.06205076 42.2015197,9.09077161 42.9141,9.1586 C43.3365333,9.69896667 43.7299667,10.2596333 44.0953667,10.8348 C43.6932333,10.7574667 42.6366667,10.5593 41.7966333,10.4539333 C41.9899667,10.7587556 42.1742778,11.0809778 42.3495667,11.4206 C42.9634,11.4921333 44.0093333,11.6284333 44.6695667,11.7937333 C45.0595062,12.4852056 45.4087447,13.1988531 45.7155,13.9310333 C45.2225,13.7589667 44.0451,13.3510333 43.1055,13.0939 C43.2524333,13.4718667 43.3897,13.8604667 43.5144,14.2597 C44.3215667,14.4723667 45.556,14.8126333 46.1447,15.0581667 C46.3951427,15.7746119 46.6023816,16.5054356 46.7653,17.2467 C46.3728333,17.0533667 45.0417333,16.4124667 43.9716333,15.9900333 C44.0599222,16.3921667 44.1359667,16.8013889 44.1997667,17.2177 C44.9663333,17.5483 46.3264333,18.1602 47.0108333,18.6280667 C47.113642,19.3757517 47.165639,20.129547 47.1664667,20.8842667 C47.1664667,20.9480667 47.1664667,21.0099333 47.1664667,21.0727667 C46.3396845,20.260914 45.4090808,19.5620673 44.3989,18.9944333 C44.4279,19.4287889 44.4430444,19.8657222 44.4443333,20.3052333 C44.8967333,20.5807333 46.1592,21.3956333 47.0968667,22.4386667 C47.0193225,23.272915 46.8790817,24.1001415 46.6773333,24.9133333 C45.9693565,23.9726192 45.1846377,23.0921951 44.3312333,22.2811 C44.2732333,22.7953667 44.1920333,23.299 44.0924667,23.792 C44.7053333,24.3990667 45.7222667,25.4643333 46.2510333,26.3507667 C45.9962844,27.0857103 45.6930517,27.8029411 45.3433333,28.4977333 C45.1761,28.1545667 44.3979333,26.5953333 43.6313667,25.5774333 C43.4607658,26.1191607 43.2626644,26.6518406 43.0378333,27.1734 C43.4119333,27.8036667 44.1649667,29.1067333 44.5139333,29.9767333 C44.0724835,30.6798897 43.5882374,31.3552515 43.0639333,31.999 C42.9672667,31.6645333 42.4897333,30.0656667 42.0972667,29.012 C41.7955117,29.5140923 41.4589312,29.994414 41.09,30.4494333 C41.3123333,31.1667 41.728,32.5471 41.8807333,33.3417 C41.3674333,33.8762667 40.8280333,34.3837667 40.2702667,34.8651667 C40.0769333,33.8521 39.7734,32.4485 39.6458,31.8781667 C39.2384211,32.1979681 38.7851036,32.4544461 38.3011667,32.6389333 L38.5631333,36.2059333 C38.1194333,36.5268667 37.6699333,36.8371667 37.2098,37.1252333 C36.7525667,36.8352333 36.3040333,36.5268667 35.8564667,36.2059333 L36.1194,32.6292667 C35.6362805,32.4428328 35.1834693,32.1858054 34.7757333,31.8665667 C34.6500667,32.434 34.3397667,33.8453333 34.1493333,34.8632333 C33.5915667,34.3799 33.0521667,33.8743333 32.5388667,33.3397667 C32.6916,32.5442 33.1082333,31.1609 33.3305667,30.4397667 C32.9608663,29.9872608 32.6236253,29.5091797 32.3213667,29.0091 C31.9240667,30.0637333 31.4513667,31.6577667 31.3547,31.9922333 C30.8297708,31.3489631 30.3454963,30.6735616 29.9047,29.9699667 C30.2517333,29.1067333 30.998,27.8123667 31.3740333,27.1782333 C31.1501806,26.6591357 30.9527283,26.1290473 30.7824333,25.59 C30.0187667,26.6079 29.2473667,28.1555333 29.0811,28.4967667 C28.7308991,27.801534 28.4276538,27.0836275 28.1734,26.3478667 C28.6983,25.4682 29.7046,24.4145333 30.3194,23.8016667 C30.2227333,23.3086667 30.1367,22.8050333 30.0787,22.2907667 C29.2318205,23.099577 28.4529573,23.9767277 27.75,24.9133333 C27.5487632,24.1001629 27.409486,23.2729018 27.3333667,22.4386667 C28.2652333,21.4024 29.5151333,20.5923333 29.9752667,20.312 C29.9752667,19.8712 29.9913778,19.4333 30.0236,18.9983 C29.0160716,19.5648622 28.0880519,20.262421 27.2637667,21.0727667 C27.2637667,21.0099333 27.2637667,20.9480667 27.2637667,20.8842667 C27.262439,20.1303453 27.3121751,19.3771996 27.4126333,18.63 C28.098,18.1621333 29.4542333,17.5512 30.2217667,17.2206 C30.2862111,16.8036444 30.3638667,16.3934556 30.4547333,15.9900333 C29.3846333,16.4086 28.0516,17.0533667 27.6581667,17.2467 C27.8204454,16.5036898 28.0276935,15.7712196 28.2787667,15.0533333 C28.8694,14.8068333 30.1154333,14.4646333 30.9197,14.2519667 C31.0463333,13.8517667 31.1855333,13.4622 31.3334333,13.0842333 C30.3957667,13.3452333 29.2067667,13.7531667 28.7108667,13.9262 C29.0183567,13.1941885 29.3679065,12.4805647 29.7577667,11.7889 C30.4228333,11.6216667 31.4861667,11.4844 32.0971,11.4138333 C32.2749667,11.0767889 32.4608889,10.7545667 32.6548667,10.4471667 C31.81,10.5515667 30.7350667,10.7536 30.3290667,10.8338333 C30.6944667,10.2538333 31.0879,9.698 31.5093667,9.15763333 C32.2318579,9.08826594 32.9576975,9.05986493 33.6834,9.07256667 C33.9312716,8.79232238 34.1983982,8.5297178 34.4828333,8.28666667 C33.6931558,8.27948148 32.9037966,8.3214515 32.1193333,8.41233333 C32.4441333,8.03243333 32.7834333,7.6622 33.1362667,7.3055 C33.6892,6.74386667 33.6341,5.95216667 33.6341,5.95216667 C32.867776,6.59133893 32.1507327,7.28737826 31.4890667,8.03436667 L31.4890667,8.02663333 C31.4610333,8.05853333 31.4359,8.09333333 31.4088333,8.1233 C28.1743667,11.8082333 26.3406,16.5642333 26.3406,20.8775 C26.3406,24.0327 27.0105,26.8128333 28.1772667,29.2565667 C27.9220667,29.2072667 26.9660333,29.0013667 25.5875667,28.4300667 C24.9544,28.1671333 24.5136,27.9689667 24.2149,27.8268667 C24.4169333,28.5663667 24.6489333,29.2836333 24.9051,29.9748 C25.5044333,30.1942333 26.8722667,30.6108667 29.0057,30.7993667 C29.4060866,31.4667141 29.8457261,32.1097112 30.3223,32.7249667 C28.7970379,32.6796665 27.281167,32.4693179 25.8012,32.0976 C26.1429857,32.8130328 26.5244459,33.5088265 26.9438,34.1817333 C28.1666333,34.3209333 29.7587333,34.3016 31.52,34.1411333 C32.1229632,34.7931396 32.7623055,35.4105358 33.4349667,35.9903667 C32.3700596,36.1199452 31.2983923,36.1861174 30.2256333,36.1885333 C29.3633667,36.1798333 28.7524333,36.1489 28.3561,36.1199 C29.0453333,36.9203 29.751,37.5370333 30.4354,37.9304667 C31.3605,37.8067333 33.2000667,37.5196333 34.7332,37.0411333 C35.0889333,37.3111556 35.4517556,37.5731222 35.8216667,37.8270333 L35.9376667,37.9053333 L29.6185667,41.8010022 L31.7790667,41.8010022 C32.3505243,41.8017018 32.909452,41.6335527 33.3856667,41.3176667 L38.6056667,37.8376667 C44.0982667,34.0560667 48.0828667,28.5866667 48.0828667,20.8823333 L48.0828667,20.8862 Z M49.5,20.2404667 C49.1694,20.6145667 48.8774667,20.9171333 48.6387,21.1414 C48.6387,21.3076667 48.6503,21.4749 48.6503,21.6392333 C48.6503,21.9592 48.6406333,22.2733667 48.6271,22.5846333 C49.6256667,21.8644667 50.6764333,20.8185333 51.1046667,20.3787 C51.0882333,19.6691667 51.0457,18.9905667 50.9732,18.3487 C50.5318255,19.0164601 50.0392792,19.6489491 49.5,20.2404667 L49.5,20.2404667 Z" id="Shape" fill="url(#linearGradient-1)" fill-rule="nonzero"></path>
                <rect id="Rectangle" x="0" y="0" width="72" height="72"></rect>
                <path d="M26.1482333,16.89 C25.5467555,15.8714779 25.0188976,14.8112395 24.5687,13.7174 C24.3430398,14.2890758 24.1494064,14.8728806 23.9887,15.4661 C24.3879333,16.1669333 25.1071333,17.3530333 25.8949667,18.3071333 C25.9607,17.8360444 26.0451222,17.3636667 26.1482333,16.89 Z M29.4213667,9.49596667 C29.3079008,8.72887813 29.2340141,7.95645522 29.2,7.18176667 C28.8777778,7.4853 28.5629667,7.79688889 28.2555667,8.11653333 C28.3674635,8.94036212 28.5213639,9.75793821 28.7166667,10.5660667 C28.9402889,10.2064667 29.1751889,9.84976667 29.4213667,9.49596667 L29.4213667,9.49596667 Z M48.3448333,18.5236667 C49.2042,17.5386333 50.0046,16.2201 50.4357333,15.4661 C50.2750253,14.8731977 50.0813916,14.2897147 49.8557333,13.7183667 C49.0882,15.5279667 48.4531,16.6328667 48.0548333,17.2418667 C48.1679333,17.6691333 48.2636333,18.0964 48.3448333,18.5236667 Z M39.0754667,23.7900667 L37.5201,23.7900667 L37.5201,22.3565 L39.0754667,22.3565 L39.0754667,21.6131333 L37.5201,21.6131333 L37.5201,20.1766667 L39.0754667,20.1766667 L39.0754667,19.4333 L37.5201,19.4333 L37.5201,18.0026333 L39.0754667,18.0026333 L39.0754667,17.2583 L37.5201,17.2583 L37.5201,15.8266667 L39.0754667,15.8266667 L39.0754667,15.0823333 L35.3489667,15.0823333 L35.3489667,15.8266667 L36.9043333,15.8266667 L36.9043333,17.2592667 L35.3489667,17.2592667 L35.3489667,18.0036 L36.9043333,18.0036 L36.9043333,19.4371667 L35.3489667,19.4371667 L35.3489667,20.1766667 L36.9043333,20.1766667 L36.9043333,21.6102333 L35.3489667,21.6102333 L35.3489667,22.3536 L36.9043333,22.3536 L36.9043333,23.7871667 L35.3489667,23.7871667 L35.3489667,24.5305333 L39.0754667,24.5305333 L39.0754667,23.7900667 Z M27.46,12.9402 C27.1125278,11.9962421 26.828976,11.02997 26.6112667,10.0479333 C26.2799893,10.4947493 25.9715499,10.9580536 25.6871333,11.4360667 C26.0338812,12.4131744 26.4416505,13.3675416 26.9080333,14.2935333 C27.0733333,13.8392 27.2608667,13.3868 27.46,12.9402 Z M31.5045333,6.97103333 C31.5586667,6.12906667 31.6843333,5.29483333 31.7326667,5 C31.5528667,5.145 30.6345333,5.99566667 30.6345333,5.99566667 C30.6345333,6.69263333 30.6770667,7.3229 30.7225,7.82363333 C30.9751222,7.53298889 31.2364444,7.24878889 31.5064667,6.97103333 L31.5045333,6.97103333 Z M25.8427667,22.6184667 C25.7925,22.1225667 25.7586667,21.6179667 25.7461,21.1017667 C25.5150667,20.8775 25.2376333,20.5933 24.9254,20.2404667 C24.3862951,19.6474314 23.8937658,19.0136715 23.4522,18.3448333 C23.3806667,18.9905667 23.3381333,19.6691667 23.3207333,20.3748333 C23.7528333,20.8253 24.8306667,21.8973333 25.8427667,22.6184667 Z M39.3654667,38.4515 L39.1721333,38.5897333 L38.0662667,39.3282667 L41.0416667,41.3138 C41.5178813,41.629686 42.076809,41.7978351 42.6482667,41.7971355 L44.8087667,41.7971355 L39.3654667,38.4515 Z M42.2596667,36.1189333 C41.7995333,36.5481333 41.3223222,36.9609 40.8280333,37.3572333 C42.0537667,37.6530333 43.2853,37.8405667 43.9880667,37.9372333 C44.6724667,37.5428333 45.3781333,36.9270667 46.0664,36.1266667 C45.6710333,36.1556667 45.0591333,36.1866 44.1978333,36.1953 C43.5231,36.1991667 42.8367667,36.1634 42.2596667,36.1189333 Z M50.2085667,27.8317 C49.9089,27.9738 49.4690667,28.1719667 48.8349333,28.4349 C48.2172333,28.6910667 47.6846,28.8728 47.2612,29.0013667 C47.0284126,29.5756828 46.7664265,30.1377269 46.4762667,30.6853 C48.0084333,30.4745667 49.0234333,30.1604 49.5183667,29.9806 C49.7735667,29.2884667 50.0055667,28.5712 50.2085667,27.8317 L50.2085667,27.8317 Z M48.6222667,32.1024333 C47.5220425,32.3763271 46.4021554,32.5641061 45.2727667,32.6640667 C44.8957667,33.2066889 44.4926667,33.7296556 44.0634667,34.2329667 C45.2015676,34.3110522 46.3441681,34.2952097 47.4796667,34.1856 C47.8986199,33.5127911 48.2800682,32.8173417 48.6222667,32.1024333 Z M26.3116,25.3444667 C25.6581333,24.9636 24.6682667,24.3004667 23.3932333,23.1820333 C23.4512333,23.9070333 23.5411333,24.6252667 23.661,25.3309333 C24.632346,25.9269612 25.6620347,26.4222094 26.7340333,26.8089667 C26.5735667,26.3333667 26.4327556,25.8452 26.3116,25.3444667 Z M48.0248667,26.6862 C48.9764555,26.318118 49.8930045,25.8651817 50.7634333,25.3328667 C50.8833,24.6239778 50.9725556,23.9070333 51.0312,23.1820333 C50.193788,23.9288301 49.2959014,24.6049125 48.3467667,25.2033333 C48.2591222,25.7098667 48.1518222,26.2041556 48.0248667,26.6862 Z M48.0828667,20.8862 C48.0649977,18.9066146 47.7187385,16.9437171 47.0582,15.0775 C47.7406667,14.0499333 48.4038,12.3466667 48.7353667,11.4360667 C48.4453667,10.9527333 48.1379667,10.4906667 47.8122,10.0498667 C47.5157947,11.355922 47.1103051,12.6347986 46.6,13.8730333 C46.2561771,13.0497515 45.8600002,12.2493256 45.4139,11.4766667 C45.7735,10.6066667 46.0364333,9.0542 46.1717667,8.11653333 C45.8643667,7.79431111 45.5495556,7.48304444 45.2273333,7.18273333 C45.1820149,8.30106619 45.0455851,9.41384197 44.8194,10.51 C44.4372863,9.92293887 44.025935,9.35543542 43.5869,8.80963333 C43.7166083,7.87815116 43.7837809,6.93902707 43.7879667,5.99856667 L43.2253667,5.43983333 C43.0475,5.29 42.8686667,5.145 42.6898333,5 C42.7575,5.4205 42.9885333,6.9604 42.9353667,8.03726667 C42.2737006,7.29027826 41.5566573,6.59423893 40.7903333,5.95506667 C40.7903333,5.95506667 40.7352333,6.7429 41.2881667,7.3084 C41.641,7.6651 41.9793333,8.03533333 42.3051,8.41523333 C41.5313039,8.32423285 40.7526101,8.28129493 39.9735,8.28666667 C40.2572412,8.52948992 40.5234189,8.7921143 40.7700333,9.07256667 C41.4857573,9.06205076 42.2015197,9.09077161 42.9141,9.1586 C43.3365333,9.69896667 43.7299667,10.2596333 44.0953667,10.8348 C43.6932333,10.7574667 42.6366667,10.5593 41.7966333,10.4539333 C41.9899667,10.7587556 42.1742778,11.0809778 42.3495667,11.4206 C42.9634,11.4921333 44.0093333,11.6284333 44.6695667,11.7937333 C45.0595062,12.4852056 45.4087447,13.1988531 45.7155,13.9310333 C45.2225,13.7589667 44.0451,13.3510333 43.1055,13.0939 C43.2524333,13.4718667 43.3897,13.8604667 43.5144,14.2597 C44.3215667,14.4723667 45.556,14.8126333 46.1447,15.0581667 C46.3951427,15.7746119 46.6023816,16.5054356 46.7653,17.2467 C46.3728333,17.0533667 45.0417333,16.4124667 43.9716333,15.9900333 C44.0599222,16.3921667 44.1359667,16.8013889 44.1997667,17.2177 C44.9663333,17.5483 46.3264333,18.1602 47.0108333,18.6280667 C47.113642,19.3757517 47.165639,20.129547 47.1664667,20.8842667 C47.1664667,20.9480667 47.1664667,21.0099333 47.1664667,21.0727667 C46.3396845,20.260914 45.4090808,19.5620673 44.3989,18.9944333 C44.4279,19.4287889 44.4430444,19.8657222 44.4443333,20.3052333 C44.8967333,20.5807333 46.1592,21.3956333 47.0968667,22.4386667 C47.0193225,23.272915 46.8790817,24.1001415 46.6773333,24.9133333 C45.9693565,23.9726192 45.1846377,23.0921951 44.3312333,22.2811 C44.2732333,22.7953667 44.1920333,23.299 44.0924667,23.792 C44.7053333,24.3990667 45.7222667,25.4643333 46.2510333,26.3507667 C45.9962844,27.0857103 45.6930517,27.8029411 45.3433333,28.4977333 C45.1761,28.1545667 44.3979333,26.5953333 43.6313667,25.5774333 C43.4607658,26.1191607 43.2626644,26.6518406 43.0378333,27.1734 C43.4119333,27.8036667 44.1649667,29.1067333 44.5139333,29.9767333 C44.0724835,30.6798897 43.5882374,31.3552515 43.0639333,31.999 C42.9672667,31.6645333 42.4897333,30.0656667 42.0972667,29.012 C41.7955117,29.5140923 41.4589312,29.994414 41.09,30.4494333 C41.3123333,31.1667 41.728,32.5471 41.8807333,33.3417 C41.3674333,33.8762667 40.8280333,34.3837667 40.2702667,34.8651667 C40.0769333,33.8521 39.7734,32.4485 39.6458,31.8781667 C39.2384211,32.1979681 38.7851036,32.4544461 38.3011667,32.6389333 L38.5631333,36.2059333 C38.1194333,36.5268667 37.6699333,36.8371667 37.2098,37.1252333 C36.7525667,36.8352333 36.3040333,36.5268667 35.8564667,36.2059333 L36.1194,32.6292667 C35.6362805,32.4428328 35.1834693,32.1858054 34.7757333,31.8665667 C34.6500667,32.434 34.3397667,33.8453333 34.1493333,34.8632333 C33.5915667,34.3799 33.0521667,33.8743333 32.5388667,33.3397667 C32.6916,32.5442 33.1082333,31.1609 33.3305667,30.4397667 C32.9608663,29.9872608 32.6236253,29.5091797 32.3213667,29.0091 C31.9240667,30.0637333 31.4513667,31.6577667 31.3547,31.9922333 C30.8297708,31.3489631 30.3454963,30.6735616 29.9047,29.9699667 C30.2517333,29.1067333 30.998,27.8123667 31.3740333,27.1782333 C31.1501806,26.6591357 30.9527283,26.1290473 30.7824333,25.59 C30.0187667,26.6079 29.2473667,28.1555333 29.0811,28.4967667 C28.7308991,27.801534 28.4276538,27.0836275 28.1734,26.3478667 C28.6983,25.4682 29.7046,24.4145333 30.3194,23.8016667 C30.2227333,23.3086667 30.1367,22.8050333 30.0787,22.2907667 C29.2318205,23.099577 28.4529573,23.9767277 27.75,24.9133333 C27.5487632,24.1001629 27.409486,23.2729018 27.3333667,22.4386667 C28.2652333,21.4024 29.5151333,20.5923333 29.9752667,20.312 C29.9752667,19.8712 29.9913778,19.4333 30.0236,18.9983 C29.0160716,19.5648622 28.0880519,20.262421 27.2637667,21.0727667 C27.2637667,21.0099333 27.2637667,20.9480667 27.2637667,20.8842667 C27.262439,20.1303453 27.3121751,19.3771996 27.4126333,18.63 C28.098,18.1621333 29.4542333,17.5512 30.2217667,17.2206 C30.2862111,16.8036444 30.3638667,16.3934556 30.4547333,15.9900333 C29.3846333,16.4086 28.0516,17.0533667 27.6581667,17.2467 C27.8204454,16.5036898 28.0276935,15.7712196 28.2787667,15.0533333 C28.8694,14.8068333 30.1154333,14.4646333 30.9197,14.2519667 C31.0463333,13.8517667 31.1855333,13.4622 31.3334333,13.0842333 C30.3957667,13.3452333 29.2067667,13.7531667 28.7108667,13.9262 C29.0183567,13.1941885 29.3679065,12.4805647 29.7577667,11.7889 C30.4228333,11.6216667 31.4861667,11.4844 32.0971,11.4138333 C32.2749667,11.0767889 32.4608889,10.7545667 32.6548667,10.4471667 C31.81,10.5515667 30.7350667,10.7536 30.3290667,10.8338333 C30.6944667,10.2538333 31.0879,9.698 31.5093667,9.15763333 C32.2318579,9.08826594 32.9576975,9.05986493 33.6834,9.07256667 C33.9312716,8.79232238 34.1983982,8.5297178 34.4828333,8.28666667 C33.6931558,8.27948148 32.9037966,8.3214515 32.1193333,8.41233333 C32.4441333,8.03243333 32.7834333,7.6622 33.1362667,7.3055 C33.6892,6.74386667 33.6341,5.95216667 33.6341,5.95216667 C32.867776,6.59133893 32.1507327,7.28737826 31.4890667,8.03436667 L31.4890667,8.02663333 C31.4610333,8.05853333 31.4359,8.09333333 31.4088333,8.1233 C28.1743667,11.8082333 26.3406,16.5642333 26.3406,20.8775 C26.3406,24.0327 27.0105,26.8128333 28.1772667,29.2565667 C27.9220667,29.2072667 26.9660333,29.0013667 25.5875667,28.4300667 C24.9544,28.1671333 24.5136,27.9689667 24.2149,27.8268667 C24.4169333,28.5663667 24.6489333,29.2836333 24.9051,29.9748 C25.5044333,30.1942333 26.8722667,30.6108667 29.0057,30.7993667 C29.4060866,31.4667141 29.8457261,32.1097112 30.3223,32.7249667 C28.7970379,32.6796665 27.281167,32.4693179 25.8012,32.0976 C26.1429857,32.8130328 26.5244459,33.5088265 26.9438,34.1817333 C28.1666333,34.3209333 29.7587333,34.3016 31.52,34.1411333 C32.1229632,34.7931396 32.7623055,35.4105358 33.4349667,35.9903667 C32.3700596,36.1199452 31.2983923,36.1861174 30.2256333,36.1885333 C29.3633667,36.1798333 28.7524333,36.1489 28.3561,36.1199 C29.0453333,36.9203 29.751,37.5370333 30.4354,37.9304667 C31.3605,37.8067333 33.2000667,37.5196333 34.7332,37.0411333 C35.0889333,37.3111556 35.4517556,37.5731222 35.8216667,37.8270333 L35.9376667,37.9053333 L29.6185667,41.8010022 L31.7790667,41.8010022 C32.3505243,41.8017018 32.909452,41.6335527 33.3856667,41.3176667 L38.6056667,37.8376667 C44.0982667,34.0560667 48.0828667,28.5866667 48.0828667,20.8823333 L48.0828667,20.8862 Z M49.5,20.2404667 C49.1694,20.6145667 48.8774667,20.9171333 48.6387,21.1414 C48.6387,21.3076667 48.6503,21.4749 48.6503,21.6392333 C48.6503,21.9592 48.6406333,22.2733667 48.6271,22.5846333 C49.6256667,21.8644667 50.6764333,20.8185333 51.1046667,20.3787 C51.0882333,19.6691667 51.0457,18.9905667 50.9732,18.3487 C50.5318255,19.0164601 50.0392792,19.6489491 49.5,20.2404667 L49.5,20.2404667 Z" id="Shape" fill="url(#linearGradient-2)" fill-rule="nonzero"></path>
                <path d="M37.32,18.1002667 L37.5133333,18.1002667 L37.5133333,19.4362 L39.0687,19.4362 L39.0687,20.1766667 L38.8753667,20.1766667 L38.8753667,19.5309333 L37.32,19.5309333 L37.32,18.1002667 Z M26.474,26.7161667 C26.5590667,26.7471 26.6441333,26.779 26.7301667,26.8128333 C26.5703444,26.3372333 26.4295333,25.8490667 26.3077333,25.3483333 C25.6542667,24.9674667 24.6644,24.3043333 23.3893667,23.1859 C23.3971,23.2825667 23.4106333,23.3792333 23.4193333,23.4759 C24.5880333,24.4754333 25.4976667,25.0873333 26.1115,25.445 C26.2217,25.88 26.3444667,26.2995333 26.4778667,26.7161667 L26.474,26.7161667 Z M42.1088667,8.50996667 L41.989,8.37463333 C41.3336,8.30696667 40.5960333,8.28666667 39.9735,8.2857 C40.0112,8.3176 40.0469667,8.35433333 40.0827333,8.38236667 C40.7600212,8.385362 41.4365542,8.42796809 42.1088667,8.50996667 L42.1088667,8.50996667 Z M37.32,15.9233333 L37.32,17.3569 L38.8753667,17.3569 L38.8753667,18.0026333 L39.0687,18.0026333 L39.0687,17.2583 L37.5201,17.2583 L37.5201,15.9233333 L37.32,15.9233333 Z M39.0716,24.5334333 L39.0716,23.7900667 L37.5201,23.7900667 L37.5201,22.4551 L37.3267667,22.4551 L37.3267667,23.8877 L38.8821333,23.8877 L38.8821333,24.5334333 L39.0716,24.5334333 Z M42.7352667,8.13586667 C42.7401,8.0392 42.7410667,7.93576667 42.7420333,7.83233333 C42.1352271,7.1626189 41.4831249,6.53538643 40.7903333,5.95506667 C40.7864397,6.04802778 40.7903199,6.14115169 40.8019333,6.23346667 C41.4900058,6.82299576 42.1372295,7.45859271 42.7391333,8.13586667 L42.7352667,8.13586667 Z M46.5391,24.7354667 C45.8671745,23.8601625 45.1276646,23.03888 44.3273667,22.2791667 C44.3177,22.3642333 44.3041667,22.4473667 44.2935333,22.5314667 C45.0848978,23.3006148 45.8162232,24.1292132 46.4811,25.01 C46.5033333,24.9191333 46.5217,24.8263333 46.5429667,24.7354667 L46.5391,24.7354667 Z M44.4066333,19.21 C45.3373312,19.7560313 46.1973518,20.4144389 46.9673333,21.1704 C46.9673333,21.1075667 46.9673333,21.0447333 46.9673333,20.9770667 C46.9673333,20.9442 46.9673333,20.9113333 46.9673333,20.8804 C46.1892427,20.1483358 45.3251679,19.5134258 44.3940667,18.9896 C44.4008333,19.0640333 44.4027667,19.1365333 44.4066333,19.21 Z M43.0281667,5.53456667 L43.5917333,6.0933 C43.5878432,7.03412656 43.5203448,7.97361359 43.3897,8.90533333 C43.8296118,9.45102957 44.2413059,10.0188835 44.6231667,10.6066667 C44.6386333,10.5380333 44.6599,10.4384667 44.6840667,10.3108667 C44.3409,9.7966 43.9774333,9.29296667 43.5869,8.8077 C43.7166083,7.87621782 43.7837809,6.93709374 43.7879667,5.99663333 L43.2253667,5.4379 C43.0475,5.29 42.8686667,5.145 42.6898333,5 C42.7014333,5.0696 42.7169,5.17206667 42.7352667,5.29483333 C42.83,5.37506667 42.9315,5.45433333 43.0281667,5.53456667 Z M45.9755333,8.21416667 C45.8402,9.15666667 45.5772667,10.7033333 45.2176667,11.5733333 C45.6644251,12.3467611 46.0615595,13.1478101 46.4066667,13.9716333 C46.4376,13.8972 46.4762667,13.7995667 46.5217,13.6816333 C46.1956814,12.9257014 45.8257847,12.1894585 45.4139,11.4766667 C45.7735,10.6066667 46.0364333,9.0542 46.1717667,8.11653333 C45.8643667,7.79431111 45.5495556,7.48304444 45.2273333,7.18273333 C45.2273333,7.2794 45.2176667,7.3693 45.2128333,7.46016667 C45.4709333,7.70666667 45.73,7.95606667 45.9755333,8.21416667 Z M36.7071333,21.7195545 L36.7071333,21.6141 L35.3489667,21.6141 L35.3489667,21.7195545 L36.7071333,21.7195545 Z M35.9289667,32.7307667 L35.6660333,36.3074333 C36.1097333,36.6283667 36.5582667,36.9377 37.0193667,37.2267333 C37.0773667,37.19 37.1344,37.1503667 37.1924,37.1126667 C36.7429,36.8284667 36.3021,36.5239667 35.8661333,36.2088333 L36.1290667,32.6321667 C35.6459472,32.4457328 35.193136,32.1887054 34.7854,31.8694667 C34.7728333,31.9294 34.7573667,31.9999667 34.7399667,32.0753667 C35.1056526,32.3448197 35.505475,32.5645594 35.9289667,32.7288333 L35.9289667,32.7307667 Z M38.8792333,15.1819 L38.8792333,15.8266667 L39.0725667,15.8266667 L39.0725667,15.0823333 L35.3489667,15.0823333 L35.3489667,15.179 L38.8792333,15.1819 Z M38.2992333,32.6408667 L38.2992333,32.6573 C38.3997667,32.6134778 38.5003,32.5661111 38.6008333,32.5152 C38.5022333,32.5596667 38.4007333,32.6022 38.3002,32.6389333 L38.2992333,32.6408667 Z M27.982,29.36 L27.9104667,29.2034 C27.1177035,29.010115 26.3418475,28.7531127 25.5904667,28.4349 C24.9573,28.1719667 24.5165,27.9738 24.2178,27.8317 C24.2381,27.9061333 24.2622667,27.9776667 24.2835333,28.0511333 C24.5619333,28.1787333 24.9254,28.3411333 25.3942333,28.5344667 C26.7707667,29.1038333 27.7268,29.3107 27.982,29.36 Z M36.7071333,17.3656879 L36.7071333,17.2602333 L35.3489667,17.2602333 L35.3489667,17.3656879 L36.7071333,17.3656879 Z M36.7071333,23.8964879 L36.7071333,23.7910333 L35.3489667,23.7910333 L35.3489667,23.8964879 L36.7071333,23.8964879 Z M36.7071333,19.5464879 L36.7071333,19.4410333 L35.3489667,19.4410333 L35.3489667,19.5464879 L36.7071333,19.5464879 Z M37.32,21.7107667 L38.8753667,21.7107667 L38.8753667,22.3565 L39.0687,22.3565 L39.0687,21.6131333 L37.5201,21.6131333 L37.5201,20.2781667 L37.3267667,20.2781667 L37.32,21.7107667 Z M45.2640667,28.345 C45.0040333,27.8239667 44.3119,26.4861 43.6275,25.5774333 C43.6014,25.6625 43.5704667,25.7427333 43.5424333,25.8268333 C44.28,26.8466667 44.9876,28.2696 45.15,28.5953667 C45.1886667,28.5132 45.2273333,28.4281333 45.2679333,28.345 L45.2640667,28.345 Z M40.0730667,34.9666667 C40.1349333,34.9125333 40.1939,34.8555 40.2557667,34.8004 C40.0624333,33.7941 39.7724333,32.4417333 39.6448333,31.8810667 C39.582,31.9284333 39.5191667,31.9709667 39.4563333,32.0154333 C39.5878,32.6060667 39.8874667,33.9700333 40.0730667,34.9666667 Z M44.0112667,16.1824 C45.0330333,16.5980667 46.2056,17.1635667 46.5700333,17.3424 C46.5536,17.2699 46.5352333,17.1974 46.5188,17.1249 C45.9649,16.8581 44.8754667,16.3457667 43.9726,15.9919667 C43.99,16.0509333 43.9987,16.1166667 44.0112667,16.1795 L44.0112667,16.1824 Z M45.2109,32.7520333 C46.2948843,32.6500521 47.3696399,32.46651 48.4260333,32.2029667 C48.0979448,32.8882006 47.7336413,33.5554988 47.3346667,34.2020333 L47.4796667,34.1885 C47.8986199,33.5156911 48.2800682,32.8202417 48.6222667,32.1053333 C47.5220425,32.3792271 46.4021554,32.5670061 45.2727667,32.6669667 C45.2524667,32.6930667 45.2302333,32.7201333 45.2109,32.7491333 L45.2109,32.7520333 Z M47.2612,29.0042667 C47.2554,29.0187667 47.2486333,29.0323 47.2428333,29.0468 C47.6353,28.9221 48.1022,28.7568 48.6387,28.5354333 C49.2718667,28.2734667 49.7126667,28.0743333 50.0123333,27.9322333 C49.8132,28.6601333 49.5841,29.3667667 49.3356667,30.0482667 L49.5203,29.9835 C49.7755,29.2913667 50.0036333,28.5741 50.2105,27.8346 C49.9108333,27.9767 49.471,28.1748667 48.8368667,28.4378 C48.2172333,28.6910667 47.6846,28.8766667 47.2612,29.0013667 L47.2612,29.0042667 Z M41.8778333,10.5883 C42.6608333,10.6975333 43.5405,10.8628333 43.8991333,10.9314667 C43.8653,10.8792667 43.8285667,10.829 43.7957,10.7768 C43.2930333,10.6801333 42.4742667,10.5380333 41.7966333,10.4529667 C41.8237,10.4964667 41.8507667,10.5438333 41.8778333,10.5883 Z M43.1702667,13.2611333 C44.0538,13.5192333 45.0678333,13.8662667 45.5163667,14.0228667 C45.4893,13.9571333 45.4593333,13.8923667 45.4313,13.8295333 C44.8513,13.6304 43.8952667,13.3104333 43.1064667,13.0900333 C43.1287,13.1451333 43.149,13.2031333 43.1702667,13.2611333 L43.1702667,13.2611333 Z M50.2395,15.5637333 C49.8383333,16.2674667 49.1143,17.4564667 48.3226,18.4134667 C48.3293667,18.4502 48.3380667,18.4869333 48.3448333,18.5236667 C49.2042,17.5386333 50.0046,16.2201 50.4357333,15.4661 C50.2750253,14.8731977 50.0813916,14.2897147 49.8557333,13.7183667 L49.7300667,14.0083667 C49.9185667,14.5062 50.0916,15.0204667 50.2395,15.5637333 Z M42.1436667,36.2233333 C42.7053,36.2649 43.3568333,36.2968 44.0016,36.291 C44.8629,36.2832667 45.4738333,36.2523333 45.8701667,36.2233333 C45.237,36.9589667 44.5903,37.5360667 43.9581,37.9314333 L43.9880667,37.9314333 C44.6724667,37.5370333 45.3781333,36.9212667 46.0664,36.1208667 C45.6710333,36.1498667 45.0591333,36.1808 44.1978333,36.1895 C43.5211667,36.1953 42.8367667,36.1595333 42.2645,36.1150667 C42.2219667,36.1547 42.1823333,36.1875667 42.1436667,36.2233333 Z M43.0339667,31.8878333 C42.8899333,31.4045 42.4607333,29.9786667 42.0963,29.0110333 C42.0479667,29.0912667 41.9996333,29.1676333 41.9493667,29.2449667 C42.3360333,30.2957333 42.7758667,31.7757 42.8706,32.0956667 C42.9266667,32.0270333 42.9788667,31.9574333 43.0339667,31.8878333 L43.0339667,31.8878333 Z M39.1992,38.5684667 L44.4501333,41.801 L44.8058667,41.801 L39.3654667,38.4515 L39.1992,38.5684667 Z M30.9197,14.251 C31.0463333,13.8508 31.1855333,13.4612333 31.3334333,13.0832667 C30.3957667,13.3442667 29.2067667,13.7522 28.7108667,13.9252333 C29.0095373,13.2145706 29.348087,12.5213344 29.7249,11.8488333 C29.6698,11.8604333 29.6118,11.873 29.5615333,11.8855667 C29.1716732,12.5772314 28.8221234,13.2908551 28.5146333,14.0228667 C29.0105333,13.8498333 30.1995333,13.4428667 31.1372,13.1818667 C30.9951,13.5434 30.8626667,13.9165333 30.7399,14.2983667 L30.9197,14.251 Z M48.0828667,20.8823333 C48.0649977,18.902748 47.7187385,16.9398505 47.0582,15.0736333 C47.7406667,14.0499333 48.4038,12.3466667 48.7353667,11.4360667 C48.4453667,10.9527333 48.1379667,10.4906667 47.8122,10.0498667 C47.7919,10.1465333 47.7696667,10.2432 47.7474333,10.3398667 C48.0248667,10.7265333 48.2907,11.1209333 48.5391333,11.5375667 C48.2075667,12.4520333 47.5444333,14.1475667 46.8619667,15.1751333 C47.5224198,17.041707 47.8686748,19.0049078 47.8866333,20.9848 C47.8866333,28.6843 43.9020333,34.1575667 38.4055667,37.9343333 L33.1855667,41.4143333 C33.1159667,41.4607333 33.0444333,41.5032667 32.9719333,41.5429 C33.1145812,41.4789751 33.2516745,41.4033151 33.3818,41.3167 L38.6018,37.8367 C44.0982667,34.0560667 48.0828667,28.5866667 48.0828667,20.8823333 L48.0828667,20.8823333 Z M50.7895333,18.6174333 C50.8504333,19.2119333 50.8862,19.8296333 50.9055333,20.4763333 C50.1956226,21.2148369 49.4352824,21.9031483 48.63,22.5363 C48.63,22.5527333 48.63,22.5691667 48.63,22.5846333 C49.6285667,21.8644667 50.6793333,20.8185333 51.1075667,20.3787 C51.0911333,19.6691667 51.0486,18.9905667 50.9761,18.3487 C50.9326,18.4105667 50.8726667,18.5024 50.7934,18.6174333 L50.7895333,18.6174333 Z M50.5633333,25.4285667 C50.3033,25.5890333 49.8615333,25.8471333 49.3066667,26.1274667 C49.9601333,25.8094333 50.4724667,25.5097667 50.7624667,25.3309333 C50.8823333,24.6220444 50.9715889,23.9051 51.0302333,23.1801 L50.8262667,23.3550667 C50.7682667,24.0549333 50.6832,24.7480333 50.5633333,25.4285667 Z M24.7262667,20.3381 C25.0385,20.6909333 25.3159333,20.9761 25.5469667,21.1994 C25.5595333,21.6266667 25.5875667,22.0452333 25.6243,22.4560667 C25.6977667,22.5111667 25.7702667,22.5643333 25.8427667,22.6165333 C25.7925,22.1206333 25.7586667,21.6160333 25.7461,21.0998333 C25.5150667,20.8755667 25.2376333,20.5913667 24.9254,20.2385333 C24.3862951,19.645498 23.8937658,19.0117382 23.4522,18.3429 C23.4396333,18.456 23.4328667,18.5758667 23.4222333,18.6909 C23.823014,19.265971 24.2585005,19.8160592 24.7262667,20.3381 L24.7262667,20.3381 Z M27.0607667,20.9809333 C27.0607667,21.0437667 27.0607667,21.1066 27.0607667,21.1742667 C27.1062,21.1278667 27.1729,21.0631 27.2541,20.9809333 C27.2541,20.9480667 27.2541,20.9152 27.2541,20.8842667 C27.255976,20.1301265 27.3089417,19.3769799 27.4126333,18.63 C27.7448554,18.4136105 28.08995,18.2176588 28.446,18.0432333 C28.0216489,18.2439491 27.6109027,18.4722491 27.2164,18.7266667 C27.1136461,19.4737091 27.0616491,20.2268577 27.0607667,20.9809333 Z M33.3363667,30.4455667 C32.9666663,29.9930608 32.6294253,29.5149797 32.3271667,29.0149 C32.2952667,29.0980333 32.2643333,29.1850333 32.2305,29.2739667 C32.5056271,29.7160107 32.8088158,30.1399583 33.1382,30.5432 C32.9158667,31.2604667 32.4992333,32.6437667 32.3465,33.4432 C32.8598,33.9787333 33.3992,34.4862333 33.9569667,34.9676333 C33.9714667,34.8912667 33.9859667,34.812 34.0014333,34.7327333 C33.4978,34.2909667 33.0086667,33.8308333 32.5427333,33.3455667 C32.6974,32.55 33.1140333,31.1628333 33.3363667,30.4455667 Z M28.0815667,15.15 C27.8303065,15.8662689 27.6227363,16.5971228 27.46,17.3385333 C27.8524667,17.1452 29.1864667,16.5033333 30.2565667,16.0818667 C30.1682778,16.4807778 30.0915889,16.8861333 30.0265,17.2979333 L30.2198333,17.2138333 C30.2842778,16.7968778 30.3619333,16.3866889 30.4528,15.9832667 C29.3827,16.4018333 28.0496667,17.0466 27.6562333,17.2399333 C27.8166918,16.5071968 28.0210266,15.7847621 28.2681333,15.0765333 C28.2024,15.1026333 28.1366667,15.1268 28.0815667,15.15 Z M29.0066667,28.3469333 C28.6868886,27.6989608 28.4079442,27.0316252 28.1714667,26.3488333 C28.6963667,25.4691667 29.7026667,24.4155 30.3174667,23.8026333 C30.2208,23.3096333 30.1347667,22.806 30.0767667,22.2917333 L29.8911667,22.4696 C29.9491667,22.9555111 30.0258556,23.4324 30.1212333,23.9002667 C29.5064333,24.5092667 28.5001333,25.5668 27.9752333,26.4474333 C28.229313,27.1829474 28.5325637,27.9005439 28.8829333,28.5953667 C28.91,28.5412333 28.9544667,28.4542333 29.0066667,28.3469333 Z M31.3131333,9.25333333 C30.8916667,9.79466667 30.4982333,10.3534 30.1328333,10.9295333 C30.5378667,10.8512333 31.6137667,10.6501667 32.4586333,10.5428667 C32.2798,10.8232 32.1096667,11.1228667 31.9453333,11.4254333 L32.0971,11.4080333 C32.2749667,11.0709889 32.4608889,10.7487667 32.6548667,10.4413667 C31.81,10.5457667 30.7350667,10.7478 30.3290667,10.8280333 C30.6751333,10.2828333 31.0492333,9.75213333 31.4465333,9.23786667 L31.3131333,9.25333333 Z M30.0477667,32.7220667 C28.6154899,32.6571421 27.1932552,32.4495709 25.8021667,32.1024333 C25.8292333,32.1585 25.8572667,32.2116667 25.8843333,32.2667667 C27.2758696,32.5973258 28.6974171,32.7855051 30.1270333,32.8284 C30.0999667,32.7936 30.07,32.7568667 30.0477667,32.7220667 Z M30.2266,36.1933667 C29.3643333,36.1846667 28.7534,36.1537333 28.3570667,36.1247333 C28.3918667,36.1653333 28.4276333,36.2030333 28.4624333,36.2426667 C28.8491,36.2649 29.3614333,36.2842333 30.0303667,36.291 C31.1031575,36.2895861 32.1748846,36.2234102 33.2397,36.0928333 L33.1633333,36.03 C32.1882712,36.1396141 31.2078037,36.1941562 30.2266,36.1933667 L30.2266,36.1933667 Z M31.1613667,32.0956667 C31.1768333,32.0425 31.2029333,31.9545333 31.2367667,31.8433667 C30.7591343,31.2468534 30.3163099,30.6232843 29.9105,29.9757667 C30.2575333,29.1125333 31.0038,27.8181667 31.3798333,27.1840333 C31.1538333,26.6631488 30.954443,26.1311186 30.7824333,25.59 C30.7302333,25.6586333 30.679,25.7311333 30.6268,25.8046 C30.7930667,26.3159667 30.9786667,26.8099333 31.1836,27.2816667 C30.8075667,27.9148333 30.0613,29.215 29.7142667,30.0734 C30.1540994,30.7769332 30.6374052,31.4523346 31.1613667,32.0956667 L31.1613667,32.0956667 Z M27.7190667,24.7886333 C27.5344038,24.0148611 27.4051868,23.2288987 27.3324,22.4367333 C28.2642667,21.4004667 29.5141667,20.5904 29.9743,20.3100667 C29.9743,19.8692667 29.9904111,19.4313667 30.0226333,18.9963667 C29.9559333,19.0331 29.8911667,19.0708 29.8293,19.1094667 C29.7990111,19.5393111 29.7829,19.9720556 29.7809667,20.4077 C29.3208333,20.689 28.0709333,21.4981 27.1390667,22.5343667 C27.215344,23.3685813 27.3546192,24.1958305 27.5557,25.0090333 L27.7190667,24.7886333 Z M25.952,16.9866667 C25.8688667,17.3627 25.8031333,17.7397 25.7441667,18.1147667 C25.7944333,18.1785667 25.8408333,18.2433333 25.8949667,18.3081 C25.9594111,17.8370111 26.0438333,17.3646333 26.1482333,16.8909667 C25.5467555,15.8724446 25.0188976,14.8122062 24.5687,13.7183667 C24.5300333,13.8150333 24.4962,13.9194333 24.4594667,14.0180333 C24.8886209,15.0404916 25.3872989,16.0323569 25.952,16.9866667 L25.952,16.9866667 Z M32.9400333,7.40023333 C32.5875222,7.7579 32.2485444,8.12716667 31.9231,8.50803333 C32.7075434,8.41699909 33.4969324,8.37535035 34.2866,8.38333333 C34.0371855,8.5973954 33.801497,8.82694955 33.5809333,9.07063333 L33.6834,9.07063333 C33.9313394,8.79105446 34.1984645,8.52909744 34.4828333,8.28666667 C33.6931558,8.27948148 32.9037966,8.3214515 32.1193333,8.41233333 C32.4441333,8.03243333 32.7834333,7.6622 33.1362667,7.3055 C33.6892,6.74386667 33.6341,5.95216667 33.6341,5.95216667 C33.5674,6.00726667 33.5045667,6.06526667 33.4407667,6.12133333 C33.4378667,6.32916667 33.3943667,6.94203333 32.9400333,7.40216667 L32.9400333,7.40023333 Z M27.2666667,13.0388 C27.1062,13.3945333 26.9602333,13.7551 26.822,14.1166333 C26.851,14.1756 26.8809667,14.2355333 26.9109333,14.2935333 C27.0781667,13.8392 27.2618333,13.3868 27.4629,12.9402 C27.1154278,11.9962421 26.831876,11.02997 26.6141667,10.0479333 C26.5571333,10.1252667 26.5039667,10.2055 26.4488667,10.2838 C26.6634846,11.2183582 26.9366229,12.138505 27.2666667,13.0388 L27.2666667,13.0388 Z M31.3112,7.06963333 C31.1062667,7.28036667 30.911,7.49883333 30.7167,7.7173 C30.7167,7.7521 30.7167,7.79076667 30.7254,7.82363333 C30.9767333,7.53234444 31.2374111,7.24814444 31.5074333,6.97103333 C31.5615667,6.12906667 31.6872333,5.29483333 31.7355667,5 C31.6959333,5.0319 31.6186,5.09666667 31.5258,5.1827 C31.4707,5.52973333 31.3605,6.2934 31.3102333,7.06963333 L31.3112,7.06963333 Z M29.2251333,9.59456667 C29.0366333,9.86426667 28.8568333,10.1378333 28.6818667,10.4143 C28.6934667,10.4655333 28.7060333,10.5167667 28.7186,10.5660667 C28.9409333,10.2038889 29.1751889,9.84718889 29.4213667,9.49596667 C29.3079008,8.72887813 29.2340141,7.95645522 29.2,7.18176667 C29.1352333,7.24363333 29.0733667,7.30936667 29.0066667,7.3751 C29.0501667,8.26056667 29.1391,9.02423333 29.2251333,9.59456667 Z" id="Shape" fill="url(#linearGradient-3)" fill-rule="nonzero"></path>
                <path d="M45.0707333,61.9627667 L49.0041,61.9627667 L49.0041,62.8327667 L43.6826,62.8327667 L43.6826,56.8394333 L48.7817667,56.8394333 L48.7817667,57.7007333 L45.0707333,57.7007333 L45.0707333,59.2735 L47.412,59.2735 L47.412,60.1251333 L45.0707333,60.1251333 L45.0707333,61.9627667 Z M9.74776667,59.9927 L7.75836667,56.8365333 L6,56.8365333 L6,62.8298667 L6.99953333,62.8298667 L6.99953333,58.3455 L9.248,61.9173333 L9.5815,61.9173333 L11.6724,58.3542 L11.6724,62.8337333 L13.0566667,62.8337333 L13.0566667,56.8404 L11.5989333,56.8404 L9.74776667,59.9927 Z M20.4313667,56.8365333 L19.0703,56.8365333 L16.2292667,62.8298667 L17.3216,62.8298667 L17.9431667,61.4127333 L20.9669,61.4127333 L21.6329333,62.8298667 L23.2521,62.8298667 L20.4313667,56.8365333 Z M18.2650667,60.6655 L19.4028333,58.1135 L20.6063333,60.6655 L18.2650667,60.6655 Z M34.8704667,57.6978333 L36.9072333,57.6978333 L36.9072333,62.8337333 L38.2866667,62.8337333 L38.2866667,57.6978333 L40.3592,57.6978333 L40.3592,56.8365333 L34.8704667,56.8365333 L34.8704667,57.6978333 Z M65.6201333,59.0202333 C64.7134,58.9564333 63.5466333,58.9467667 63.5466333,58.2614 C63.5466333,57.5760333 64.3518667,57.4658333 64.9908333,57.4658333 C65.8828349,57.4732045 66.7572328,57.714889 67.5264,58.1666667 L68.0348667,57.4532667 C67.3234,56.9912 66.3973333,56.6393333 65.0005,56.6393333 C63.7042,56.6393333 62.2329333,57.1226667 62.2329333,58.6200333 C62.2329333,60.0168667 64.0009667,60.3687333 65.2402333,60.4248 C66.1382667,60.4615333 67.0914,60.5079333 67.0914,61.2203667 C67.0914,61.9695333 66.3180667,62.1735 65.2866333,62.1735 C64.2746461,62.1741795 63.2936461,61.8244079 62.5103667,61.1836333 L61.9303667,61.8864 C62.6341,62.4238667 63.7264333,62.9971 65.3272333,62.9971 C66.7153667,62.9971 68.4273333,62.4973333 68.4273333,60.8704333 C68.4244333,59.4001333 66.8236333,59.1033667 65.6201333,59.0202333 L65.6201333,59.0202333 Z M57.1366667,60.1106333 C57.6461,60.0545667 58.1275,59.8699333 58.4416667,59.5654333 C58.6985856,59.3212144 58.8480836,58.9850177 58.8573333,58.6306667 C58.8694876,58.195679 58.7105241,57.7732803 58.4146,57.4542333 C57.9602667,57.0115 57.3677,56.8365333 56.0443333,56.8365333 L52.6262,56.8365333 L52.6262,62.8298667 L54.0143333,62.8298667 L54.0143333,60.3165333 L55.6064333,60.3165333 L57.1879,62.8298667 L58.9085667,62.8298667 L57.1366667,60.1106333 Z M54.0191667,59.5306333 L54.0191667,57.6398333 L55.8316667,57.6398333 C56.6659,57.6398333 57.3599667,57.7713 57.3599667,58.5929667 C57.3599667,59.2029333 56.7799667,59.5277333 56.0443333,59.5277333 L54.0191667,59.5306333 Z M29.4136333,59.0231333 C28.5069,58.9593333 27.3411,58.9496667 27.3411,58.2643 C27.3411,57.5789333 28.1463333,57.4687333 28.7843333,57.4687333 C29.674429,57.4760692 30.5470357,57.7167193 31.3150667,58.1666667 L31.8245,57.4532667 C31.1120667,56.9912 30.186,56.6393333 28.7891667,56.6393333 C27.4928667,56.6393333 26.0216,57.1226667 26.0216,58.6200333 C26.0216,60.0168667 27.7896333,60.3687333 29.0289,60.4248 C29.9269333,60.4615333 30.8800667,60.5079333 30.8800667,61.2203667 C30.8800667,61.9695333 30.1067333,62.1735 29.0753,62.1735 C28.0640274,62.1746151 27.0834963,61.8259136 26.3,61.1865333 L25.72,61.8893 C26.4237333,62.4267667 27.5160667,63 29.1168667,63 C30.505,63 32.2169667,62.5002333 32.2169667,60.8733333 C32.2131,59.4001333 30.6123,59.1033667 29.4088,59.0202333 L29.4136333,59.0231333 Z M56.808,50.3318333 L54.8369667,47.5826333 L53.1288667,47.5826333 L55.822,51.1921667 L55.822,53.5798333 L57.2101333,53.5798333 L57.2101333,51.1921667 L59.9680333,47.5826333 L58.7181333,47.5826333 L56.808,50.3318333 Z M18.9668667,50.8577 C19.4763,50.8026 19.9577,50.617 20.2718667,50.3134667 C20.5276212,50.0680289 20.6768705,49.7320445 20.6875333,49.3777333 C20.699275,48.9429248 20.5399612,48.5208645 20.2438333,48.2022667 C19.7904667,47.7585667 19.1969333,47.5816667 17.8745333,47.5816667 L14.4554333,47.5816667 L14.4554333,53.575 L15.8416333,53.575 L15.8416333,51.0684333 L17.4337333,51.0684333 L19.0171333,53.575 L20.7387667,53.575 L18.9668667,50.8577 Z M15.8464667,50.2777 L15.8464667,48.384 L17.6609,48.384 C18.4951333,48.384 19.1872667,48.5135333 19.1872667,49.3371333 C19.1872667,49.9480667 18.6140333,50.2719 17.8745333,50.2719 L15.8464667,50.2777 Z M29.6765667,53.0365667 C30.2565667,52.5000667 30.3706333,51.8524 30.3706333,51.2414667 L30.3706333,47.5797333 L29.3662667,47.5797333 L29.3662667,51.1148333 C29.3662667,52.1511 28.8665,52.9196 27.5151,52.9196 C26.3125667,52.9196 25.7944333,52.1462667 25.7944333,51.1428667 L25.7944333,47.5797333 L24.415,47.5797333 L24.415,51.2356667 C24.415,51.9577667 24.4894333,52.531 25.1003667,53.0771667 C25.5537333,53.4744667 26.2661667,53.7712333 27.4049,53.7712333 C28.5436333,53.7712333 29.2280333,53.4377333 29.6717333,53.0307667 L29.6765667,53.0365667 Z M39.0397,52.3666667 C38.6390483,52.75498 38.0980735,52.9642546 37.5404,52.9466667 C36.3088667,52.9466667 35.3837667,52.0679667 35.3837667,50.6518 C35.3837667,49.2076 36.1803,48.1713333 37.4476,48.1713333 C38.4142667,48.1713333 39.0580667,48.5966667 39.7337667,49.1061 L40.3901333,48.4400667 C39.5762,47.7827333 38.7342333,47.3661 37.4563,47.3661 C35.3557333,47.3661 33.7365667,48.7455333 33.7365667,50.6527667 C33.7365667,52.5223 35.4949333,53.7809 37.3741333,53.7809 C38.9372333,53.7809 39.6873667,53.2434333 40.4732667,52.5870667 L40.4732667,50.4333333 L39.0397,50.4333333 L39.0397,52.3666667 Z M49.007,50.4333333 L49.007,50.3772667 C49.6836667,50.3038 50.4695667,49.8784667 50.4695667,49.0896667 C50.4776749,48.7767405 50.3648,48.4727401 50.1544333,48.2409333 C49.7677667,47.7953 49.0911,47.5826333 47.7677333,47.5826333 L44.4810667,47.5826333 L44.4810667,53.5759667 L48.2095,53.5759667 C49.2941,53.5759667 49.9582,53.3275333 50.3555,52.9196 C50.6164539,52.6527872 50.7607537,52.2932546 50.7566667,51.9200667 C50.7566667,50.8828333 49.6933333,50.4749 49.007,50.4333333 Z M45.8721,48.4033333 L47.3414333,48.4033333 C48.3148667,48.4033333 48.9432,48.4942 48.9432,49.2617333 C48.9432,49.8098333 48.5729667,50.0785667 47.6382,50.0785667 L45.8721,50.0785667 L45.8721,48.4033333 Z M47.6556,52.7697667 L45.8721,52.7697667 L45.8721,50.8548 L47.7851333,50.8548 C48.7943333,50.8548 49.1742333,51.2414667 49.1742333,51.8466 C49.1742333,52.6702 48.5178667,52.7610667 47.6556,52.7610667 L47.6556,52.7697667 Z" id="Shape" fill="#141630" fill-rule="nonzero"></path>
            </g>
        </g>
    </g>
</svg>