<?xml version="1.0" encoding="UTF-8"?>
<svg width="54px" height="50px" viewBox="0 0 54 50" version="1.1" xmlns="http://www.w3.org/2000/svg" xmlns:xlink="http://www.w3.org/1999/xlink">
    <title>0D376FCC-565A-4B7E-B1C4-C28F53C67B81</title>
    <defs>
        <linearGradient x1="24.229229%" y1="86.5011769%" x2="75.7687879%" y2="18.2348295%" id="linearGradient-1">
            <stop stop-color="#E15B11" offset="0%"></stop>
            <stop stop-color="#EB9845" offset="54%"></stop>
            <stop stop-color="#FFCE8E" offset="65%"></stop>
            <stop stop-color="#FFB677" offset="73%"></stop>
            <stop stop-color="#EF7D3F" offset="100%"></stop>
        </linearGradient>
        <linearGradient x1="29.5935949%" y1="96.3094243%" x2="68.9884673%" y2="5.92855231%" id="linearGradient-2">
            <stop stop-color="#E15B11" offset="0%"></stop>
            <stop stop-color="#EB9845" offset="54%"></stop>
            <stop stop-color="#FFCE8E" offset="64%"></stop>
            <stop stop-color="#FFB677" offset="72%"></stop>
            <stop stop-color="#EF7D3F" offset="100%"></stop>
        </linearGradient>
        <linearGradient x1="27.9265631%" y1="81.5970581%" x2="75.6425398%" y2="18.2453375%" id="linearGradient-3">
            <stop stop-color="#EB9845" offset="0%"></stop>
            <stop stop-color="#FFB677" offset="37%"></stop>
            <stop stop-color="#F8B789" offset="62%"></stop>
            <stop stop-color="#EF8F32" offset="84%"></stop>
            <stop stop-color="#F7BF88" offset="100%"></stop>
        </linearGradient>
    </defs>
    <g id="Mobile-UI-" stroke="none" stroke-width="1" fill="none" fill-rule="evenodd">
        <g id="Nav" transform="translate(-32.000000, -59.000000)" fill-rule="nonzero">
            <g id="mobile_nav_logo" transform="translate(32.000000, 59.000000)">
                <path d="M17.1259983,10.1065 C16.6147422,9.24075625 16.166063,8.33955359 15.783395,7.40979 C15.5915838,7.89571447 15.4269954,8.3919485 15.290395,8.896185 C15.6297433,9.49189333 16.2410633,10.5000783 16.9107217,11.3110633 C16.966595,10.9106378 17.0383539,10.5091167 17.1259983,10.1065 Z M19.9081617,3.82157167 C19.8117157,3.16954641 19.748912,2.51298694 19.72,1.85450167 C19.4461111,2.112505 19.1785217,2.37735556 18.9172317,2.64905333 C19.0123439,3.3493078 19.1431593,4.04424748 19.3091667,4.73115667 C19.4992456,4.42549667 19.6989106,4.12230167 19.9081617,3.82157167 L19.9081617,3.82157167 Z M35.9931083,11.4951167 C36.72357,10.6578383 37.40391,9.537085 37.7703733,8.896185 C37.6337715,8.39221801 37.4691828,7.89625753 37.2773733,7.41061167 C36.62497,8.94877167 36.085135,9.88793667 35.7466083,10.4055867 C35.8427433,10.7687633 35.9240883,11.13194 35.9931083,11.4951167 Z M28.1141467,15.9715567 L26.792085,15.9715567 L26.792085,14.753025 L28.1141467,14.753025 L28.1141467,14.1211633 L26.792085,14.1211633 L26.792085,12.9001667 L28.1141467,12.9001667 L28.1141467,12.268305 L26.792085,12.268305 L26.792085,11.0522383 L28.1141467,11.0522383 L28.1141467,10.419555 L26.792085,10.419555 L26.792085,9.20266667 L28.1141467,9.20266667 L28.1141467,8.56998333 L24.9466217,8.56998333 L24.9466217,9.20266667 L26.2686833,9.20266667 L26.2686833,10.4203767 L24.9466217,10.4203767 L24.9466217,11.05306 L26.2686833,11.05306 L26.2686833,12.2715917 L24.9466217,12.2715917 L24.9466217,12.9001667 L26.2686833,12.9001667 L26.2686833,14.1186983 L24.9466217,14.1186983 L24.9466217,14.75056 L26.2686833,14.75056 L26.2686833,15.9690917 L24.9466217,15.9690917 L24.9466217,16.6009533 L28.1141467,16.6009533 L28.1141467,15.9715567 Z M18.241,6.74917 C17.9456486,5.94680581 17.7046296,5.12547453 17.5195767,4.29074333 C17.2379909,4.67053691 16.9758174,5.0643456 16.7340633,5.47065667 C17.0287991,6.30119825 17.3754029,7.11241037 17.7718283,7.89950333 C17.9123333,7.51332 18.0717367,7.12878 18.241,6.74917 Z M21.6788533,1.67537833 C21.7248667,0.959706667 21.8316833,0.250608333 21.8727667,0 C21.7199367,0.12325 20.9393533,0.846316667 20.9393533,0.846316667 C20.9393533,1.43873833 20.9755067,1.974465 21.014125,2.40008833 C21.2288539,2.15304056 21.4509778,1.91147056 21.6804967,1.67537833 L21.6788533,1.67537833 Z M16.8663517,14.9756967 C16.823625,14.5541817 16.7948667,14.1252717 16.784185,13.6865017 C16.5878067,13.495875 16.3519883,13.254305 16.08659,12.9543967 C15.6283509,12.4503167 15.2097009,11.9116208 14.83437,11.3431083 C14.7735667,11.8919817 14.7374133,12.4687917 14.7226233,13.0686083 C15.0899083,13.451505 16.0060667,14.3627333 16.8663517,14.9756967 Z M28.3606467,28.433775 L28.1963133,28.5512733 L27.2563267,29.1790267 L29.7854167,30.86673 C30.1901991,31.1352331 30.6652877,31.2781599 31.1510267,31.2775652 L32.9874517,31.2775652 L28.3606467,28.433775 Z M30.8207167,26.4510933 C30.4296033,26.8159133 30.0239739,27.166765 29.6038283,27.5036483 C30.6457017,27.7550783 31.692505,27.9144817 32.2898567,27.9966483 C32.8715967,27.6614083 33.4714133,27.1380067 34.05644,26.4576667 C33.7203783,26.4823167 33.2002633,26.50861 32.4681583,26.516005 C31.894635,26.5192917 31.3112517,26.48889 30.8207167,26.4510933 Z M37.5772817,19.406945 C37.322565,19.52773 36.9487067,19.6961717 36.4096933,19.919665 C35.8846483,20.1374067 35.43191,20.29188 35.07202,20.4011617 C34.8741507,20.8893304 34.6514625,21.3670679 34.4048267,21.832505 C35.7071683,21.6533817 36.5699183,21.38634 36.9906117,21.23351 C37.2075317,20.6451967 37.4047317,20.03552 37.5772817,19.406945 L37.5772817,19.406945 Z M36.2289267,23.0370683 C35.2937361,23.269878 34.3418321,23.4294902 33.3818517,23.5144567 C33.0614017,23.9756856 32.7187667,24.4202072 32.3539467,24.8480217 C33.3213325,24.9143943 34.2925429,24.9009282 35.2577167,24.80776 C35.6138269,24.2358724 35.938058,23.6447404 36.2289267,23.0370683 Z M17.26486,17.2927967 C16.7094133,16.96906 15.8680267,16.4053967 14.7842483,15.4547283 C14.8335483,16.0709783 14.9099633,16.6814767 15.01185,17.2812933 C15.8374941,17.787917 16.7127295,18.208878 17.6239283,18.5376217 C17.4875317,18.1333617 17.3678422,17.71842 17.26486,17.2927967 Z M35.7211367,18.43327 C36.5299872,18.1204003 37.3090538,17.7354044 38.0489183,17.2829367 C38.150805,16.6803811 38.2266722,16.0709783 38.27652,15.4547283 C37.5647198,16.0895056 36.8015162,16.6641756 35.9947517,17.1728333 C35.9202539,17.6033867 35.8290489,18.0235322 35.7211367,18.43327 Z M35.7704367,13.50327 C35.755248,11.8206224 35.4609277,10.1521596 34.89947,8.565875 C35.4795667,7.69244333 36.04323,6.24466667 36.3250617,5.47065667 C36.0785617,5.05982333 35.8172717,4.66706667 35.54037,4.29238667 C35.2884255,5.40253367 34.9437594,6.48957882 34.51,7.54207833 C34.2177505,6.84228875 33.8810001,6.16192679 33.501815,5.50516667 C33.807475,4.76566667 34.0309683,3.44607 34.1460017,2.64905333 C33.8847117,2.37516444 33.6171222,2.11058778 33.3432333,1.85532333 C33.3047127,2.80590626 33.1887474,3.75176568 32.99649,4.6835 C32.6716933,4.18449804 32.3220448,3.70212011 31.948865,3.23818833 C32.0591171,2.44642848 32.1162138,1.64817301 32.1197717,0.848781667 L31.6415617,0.373858333 C31.490375,0.2465 31.3383667,0.12325 31.1863583,0 C31.243875,0.357425 31.4402533,1.66634 31.3950617,2.58167667 C30.8326455,1.94673652 30.2231587,1.35510309 29.5717833,0.811806667 C29.5717833,0.811806667 29.5249483,1.481465 29.9949417,1.96214 C30.29485,2.265335 30.5824333,2.58003333 30.859335,2.90294833 C30.2016083,2.82559792 29.5397186,2.78910069 28.877475,2.79366667 C29.118655,3.00006643 29.3449061,3.22329716 29.5545283,3.46168167 C30.1628937,3.45274315 30.7712917,3.47715587 31.376985,3.53481 C31.7360533,3.99412167 32.0704717,4.47068833 32.3810617,4.95958 C32.0392483,4.89384667 31.1411667,4.725405 30.4271383,4.63584333 C30.5914717,4.89494222 30.7481361,5.16883111 30.8971317,5.45751 C31.41889,5.51831333 32.3079333,5.63416833 32.8691317,5.77467333 C33.2005802,6.3624248 33.497433,6.9690251 33.758175,7.59137833 C33.339125,7.44512167 32.338335,7.09837833 31.539675,6.879815 C31.6645683,7.20108667 31.781245,7.53139667 31.88724,7.870745 C32.5733317,8.05151167 33.6226,8.34073833 34.122995,8.54944167 C34.3358713,9.1584201 34.5120244,9.77962026 34.650505,10.409695 C34.3169083,10.2453617 33.1854733,9.70059667 32.2758883,9.34152833 C32.3509339,9.68334167 32.4155717,10.0311806 32.4698017,10.385045 C33.1213833,10.666055 34.2774683,11.18617 34.8592083,11.5838567 C34.9465957,12.2193889 34.9907931,12.8601149 34.9914967,13.5016267 C34.9914967,13.5558567 34.9914967,13.6084433 34.9914967,13.6618517 C34.2887318,12.9717769 33.4977187,12.3777572 32.639065,11.8952683 C32.663715,12.2644706 32.6765878,12.6358639 32.6776833,13.0094483 C33.0622233,13.2436233 34.13532,13.9362883 34.9323367,14.8228667 C34.8664241,15.5319777 34.7472195,16.2351203 34.5757333,16.9263333 C33.973953,16.1267264 33.306942,15.3783659 32.5815483,14.688935 C32.5322483,15.1260617 32.4632283,15.55415 32.3785967,15.9732 C32.8995333,16.4892067 33.7639267,17.3946833 34.2133783,18.1481517 C33.9968417,18.7728537 33.7390939,19.3825 33.4418333,19.9730733 C33.299685,19.6813817 32.6382433,18.3560333 31.9866617,17.4908183 C31.8416509,17.9512866 31.6732647,18.4040645 31.4821583,18.84739 C31.8001433,19.3831167 32.4402217,20.4907233 32.7368433,21.2302233 C32.361611,21.8279062 31.9500018,22.4019638 31.5043433,22.94915 C31.4221767,22.6648533 31.0162733,21.3058167 30.6826767,20.4102 C30.4261849,20.8369785 30.1400915,21.2452519 29.8265,21.6320183 C30.0154833,22.241695 30.3688,23.415035 30.4986233,24.090445 C30.0623183,24.5448267 29.6038283,24.9762017 29.1297267,25.3853917 C28.9653933,24.524285 28.70739,23.331225 28.59893,22.8464417 C28.2526579,23.1182729 27.8673381,23.3362791 27.4559917,23.4930933 L27.6786633,26.5250433 C27.3015183,26.7978367 26.9194433,27.0615917 26.52833,27.3064483 C26.1396817,27.0599483 25.7584283,26.7978367 25.3779967,26.5250433 L25.60149,23.4848767 C25.1908384,23.3264079 24.8059489,23.1079346 24.4593733,22.8365817 C24.3525567,23.3189 24.0888017,24.5185333 23.9269333,25.3837483 C23.4528317,24.972915 22.9943417,24.5431833 22.5580367,24.0888017 C22.68786,23.41257 23.0419983,22.236765 23.2309817,21.6238017 C22.9167363,21.2391717 22.6300815,20.8328027 22.3731617,20.407735 C22.0354567,21.3041733 21.6336617,22.6591017 21.551495,22.9433983 C21.1053052,22.3966186 20.6936719,21.8225274 20.318995,21.2244717 C20.6139733,20.4907233 21.2483,19.3905117 21.5679283,18.8514983 C21.3776535,18.4102654 21.209819,17.9596902 21.0650683,17.5015 C20.4159517,18.366715 19.7602617,19.6822033 19.618935,19.9722517 C19.3212642,19.3813039 19.0635058,18.7710834 18.84739,18.1456867 C19.293555,17.39797 20.14891,16.5023533 20.67149,15.9814167 C20.5893233,15.5623667 20.516195,15.1342783 20.466895,14.6971517 C19.7470475,15.3846404 19.0850137,16.1302186 18.4875,16.9263333 C18.3164487,16.2351385 18.1980631,15.5319665 18.1333617,14.8228667 C18.9254483,13.94204 19.9878633,13.2534833 20.3789767,13.0152 C20.3789767,12.64052 20.3926711,12.268305 20.42006,11.898555 C19.5636609,12.3801329 18.7748441,12.9730579 18.0742017,13.6618517 C18.0742017,13.6084433 18.0742017,13.5558567 18.0742017,13.5016267 C18.0730732,12.8607935 18.1153488,12.2206197 18.2007383,11.5855 C18.7833,11.1878133 19.9360983,10.66852 20.5885017,10.38751 C20.6432794,10.0330978 20.7092867,9.68443722 20.7865233,9.34152833 C19.8769383,9.69731 18.74386,10.2453617 18.4094417,10.409695 C18.5473786,9.77813637 18.7235395,9.15553668 18.9369517,8.54533333 C19.43899,8.33580833 20.4981183,8.04493833 21.181745,7.86417167 C21.2893833,7.52400167 21.4077033,7.19287 21.5334183,6.87159833 C20.7364017,7.09344833 19.7257517,7.44019167 19.3042367,7.58727 C19.5656032,6.9650602 19.8627205,6.35848 20.1941017,5.770565 C20.7594083,5.62841667 21.6632417,5.51174 22.182535,5.45175833 C22.3337217,5.16527056 22.4917556,4.89138167 22.6566367,4.63009167 C21.9385,4.71883167 21.0248067,4.89056 20.6797067,4.95875833 C20.9902967,4.46575833 21.324715,3.9933 21.6829617,3.53398833 C22.2970792,3.47502605 22.9140429,3.45088519 23.53089,3.46168167 C23.7415808,3.22347402 23.9686385,3.00026013 24.2104083,2.79366667 C23.5391825,2.78755926 22.8682271,2.82323378 22.2014333,2.90048333 C22.4775133,2.57756833 22.7659183,2.26287 23.0658267,1.959675 C23.53582,1.48228667 23.488985,0.809341667 23.488985,0.809341667 C22.8376096,1.35263809 22.2281228,1.94427152 21.6657067,2.57921167 L21.6657067,2.57263833 C21.6418783,2.59975333 21.620515,2.62933333 21.5975083,2.654805 C18.8482117,5.78699833 17.28951,9.82959833 17.28951,13.495875 C17.28951,16.177795 17.858925,18.5409083 18.8506767,20.6180817 C18.6337567,20.5761767 17.8211283,20.4011617 16.6494317,19.9155567 C16.11124,19.6920633 15.73656,19.5236217 15.482665,19.4028367 C15.6543933,20.0314117 15.8515933,20.6410883 16.069335,21.22858 C16.5787683,21.4150983 17.7414267,21.7692367 19.554845,21.9294617 C19.8951736,22.496707 20.2688672,23.0432545 20.673955,23.5662217 C19.3774822,23.5277165 18.0889919,23.3489202 16.83102,23.03296 C17.1215378,23.6410778 17.445779,24.2325025 17.80223,24.8044733 C18.8416383,24.9227933 20.1949233,24.90636 21.692,24.7699633 C22.2045187,25.3241687 22.7479597,25.8489554 23.3197217,26.3418117 C22.4145506,26.4519534 21.5036335,26.5081998 20.5917883,26.5102533 C19.8588617,26.5028583 19.3395683,26.476565 19.002685,26.451915 C19.5885333,27.132255 20.18835,27.6564783 20.77009,27.9908967 C21.556425,27.8857233 23.1200567,27.6416883 24.42322,27.2349633 C24.7255933,27.4644822 25.0339922,27.6871539 25.3484167,27.9029783 L25.4470167,27.9695333 L20.0757817,31.2808519 L21.9122067,31.2808519 C22.3979457,31.2814465 22.8730342,31.1385198 23.2778167,30.8700167 L27.7148167,27.9120167 C32.3835267,24.6976567 35.7704367,20.0486667 35.7704367,13.4999833 L35.7704367,13.50327 Z M36.975,12.9543967 C36.69399,13.2723817 36.4458467,13.5295633 36.242895,13.72019 C36.242895,13.8615167 36.252755,14.003665 36.252755,14.1433483 C36.252755,14.41532 36.2445383,14.6823617 36.233035,14.9469383 C37.0818167,14.3347967 37.9749683,13.4457533 38.3389667,13.071895 C38.3249983,12.4687917 38.288845,11.8919817 38.22722,11.346395 C37.8520517,11.9139911 37.4333873,12.4516067 36.975,12.9543967 L36.975,12.9543967 Z" id="Shape" fill="url(#linearGradient-1)"></path>
                <path d="M17.1259983,10.1065 C16.6147422,9.24075625 16.166063,8.33955359 15.783395,7.40979 C15.5915838,7.89571447 15.4269954,8.3919485 15.290395,8.896185 C15.6297433,9.49189333 16.2410633,10.5000783 16.9107217,11.3110633 C16.966595,10.9106378 17.0383539,10.5091167 17.1259983,10.1065 Z M19.9081617,3.82157167 C19.8117157,3.16954641 19.748912,2.51298694 19.72,1.85450167 C19.4461111,2.112505 19.1785217,2.37735556 18.9172317,2.64905333 C19.0123439,3.3493078 19.1431593,4.04424748 19.3091667,4.73115667 C19.4992456,4.42549667 19.6989106,4.12230167 19.9081617,3.82157167 L19.9081617,3.82157167 Z M35.9931083,11.4951167 C36.72357,10.6578383 37.40391,9.537085 37.7703733,8.896185 C37.6337715,8.39221801 37.4691828,7.89625753 37.2773733,7.41061167 C36.62497,8.94877167 36.085135,9.88793667 35.7466083,10.4055867 C35.8427433,10.7687633 35.9240883,11.13194 35.9931083,11.4951167 Z M28.1141467,15.9715567 L26.792085,15.9715567 L26.792085,14.753025 L28.1141467,14.753025 L28.1141467,14.1211633 L26.792085,14.1211633 L26.792085,12.9001667 L28.1141467,12.9001667 L28.1141467,12.268305 L26.792085,12.268305 L26.792085,11.0522383 L28.1141467,11.0522383 L28.1141467,10.419555 L26.792085,10.419555 L26.792085,9.20266667 L28.1141467,9.20266667 L28.1141467,8.56998333 L24.9466217,8.56998333 L24.9466217,9.20266667 L26.2686833,9.20266667 L26.2686833,10.4203767 L24.9466217,10.4203767 L24.9466217,11.05306 L26.2686833,11.05306 L26.2686833,12.2715917 L24.9466217,12.2715917 L24.9466217,12.9001667 L26.2686833,12.9001667 L26.2686833,14.1186983 L24.9466217,14.1186983 L24.9466217,14.75056 L26.2686833,14.75056 L26.2686833,15.9690917 L24.9466217,15.9690917 L24.9466217,16.6009533 L28.1141467,16.6009533 L28.1141467,15.9715567 Z M18.241,6.74917 C17.9456486,5.94680581 17.7046296,5.12547453 17.5195767,4.29074333 C17.2379909,4.67053691 16.9758174,5.0643456 16.7340633,5.47065667 C17.0287991,6.30119825 17.3754029,7.11241037 17.7718283,7.89950333 C17.9123333,7.51332 18.0717367,7.12878 18.241,6.74917 Z M21.6788533,1.67537833 C21.7248667,0.959706667 21.8316833,0.250608333 21.8727667,0 C21.7199367,0.12325 20.9393533,0.846316667 20.9393533,0.846316667 C20.9393533,1.43873833 20.9755067,1.974465 21.014125,2.40008833 C21.2288539,2.15304056 21.4509778,1.91147056 21.6804967,1.67537833 L21.6788533,1.67537833 Z M16.8663517,14.9756967 C16.823625,14.5541817 16.7948667,14.1252717 16.784185,13.6865017 C16.5878067,13.495875 16.3519883,13.254305 16.08659,12.9543967 C15.6283509,12.4503167 15.2097009,11.9116208 14.83437,11.3431083 C14.7735667,11.8919817 14.7374133,12.4687917 14.7226233,13.0686083 C15.0899083,13.451505 16.0060667,14.3627333 16.8663517,14.9756967 Z M28.3606467,28.433775 L28.1963133,28.5512733 L27.2563267,29.1790267 L29.7854167,30.86673 C30.1901991,31.1352331 30.6652877,31.2781599 31.1510267,31.2775652 L32.9874517,31.2775652 L28.3606467,28.433775 Z M30.8207167,26.4510933 C30.4296033,26.8159133 30.0239739,27.166765 29.6038283,27.5036483 C30.6457017,27.7550783 31.692505,27.9144817 32.2898567,27.9966483 C32.8715967,27.6614083 33.4714133,27.1380067 34.05644,26.4576667 C33.7203783,26.4823167 33.2002633,26.50861 32.4681583,26.516005 C31.894635,26.5192917 31.3112517,26.48889 30.8207167,26.4510933 Z M37.5772817,19.406945 C37.322565,19.52773 36.9487067,19.6961717 36.4096933,19.919665 C35.8846483,20.1374067 35.43191,20.29188 35.07202,20.4011617 C34.8741507,20.8893304 34.6514625,21.3670679 34.4048267,21.832505 C35.7071683,21.6533817 36.5699183,21.38634 36.9906117,21.23351 C37.2075317,20.6451967 37.4047317,20.03552 37.5772817,19.406945 L37.5772817,19.406945 Z M36.2289267,23.0370683 C35.2937361,23.269878 34.3418321,23.4294902 33.3818517,23.5144567 C33.0614017,23.9756856 32.7187667,24.4202072 32.3539467,24.8480217 C33.3213325,24.9143943 34.2925429,24.9009282 35.2577167,24.80776 C35.6138269,24.2358724 35.938058,23.6447404 36.2289267,23.0370683 Z M17.26486,17.2927967 C16.7094133,16.96906 15.8680267,16.4053967 14.7842483,15.4547283 C14.8335483,16.0709783 14.9099633,16.6814767 15.01185,17.2812933 C15.8374941,17.787917 16.7127295,18.208878 17.6239283,18.5376217 C17.4875317,18.1333617 17.3678422,17.71842 17.26486,17.2927967 Z M35.7211367,18.43327 C36.5299872,18.1204003 37.3090538,17.7354044 38.0489183,17.2829367 C38.150805,16.6803811 38.2266722,16.0709783 38.27652,15.4547283 C37.5647198,16.0895056 36.8015162,16.6641756 35.9947517,17.1728333 C35.9202539,17.6033867 35.8290489,18.0235322 35.7211367,18.43327 Z M35.7704367,13.50327 C35.755248,11.8206224 35.4609277,10.1521596 34.89947,8.565875 C35.4795667,7.69244333 36.04323,6.24466667 36.3250617,5.47065667 C36.0785617,5.05982333 35.8172717,4.66706667 35.54037,4.29238667 C35.2884255,5.40253367 34.9437594,6.48957882 34.51,7.54207833 C34.2177505,6.84228875 33.8810001,6.16192679 33.501815,5.50516667 C33.807475,4.76566667 34.0309683,3.44607 34.1460017,2.64905333 C33.8847117,2.37516444 33.6171222,2.11058778 33.3432333,1.85532333 C33.3047127,2.80590626 33.1887474,3.75176568 32.99649,4.6835 C32.6716933,4.18449804 32.3220448,3.70212011 31.948865,3.23818833 C32.0591171,2.44642848 32.1162138,1.64817301 32.1197717,0.848781667 L31.6415617,0.373858333 C31.490375,0.2465 31.3383667,0.12325 31.1863583,0 C31.243875,0.357425 31.4402533,1.66634 31.3950617,2.58167667 C30.8326455,1.94673652 30.2231587,1.35510309 29.5717833,0.811806667 C29.5717833,0.811806667 29.5249483,1.481465 29.9949417,1.96214 C30.29485,2.265335 30.5824333,2.58003333 30.859335,2.90294833 C30.2016083,2.82559792 29.5397186,2.78910069 28.877475,2.79366667 C29.118655,3.00006643 29.3449061,3.22329716 29.5545283,3.46168167 C30.1628937,3.45274315 30.7712917,3.47715587 31.376985,3.53481 C31.7360533,3.99412167 32.0704717,4.47068833 32.3810617,4.95958 C32.0392483,4.89384667 31.1411667,4.725405 30.4271383,4.63584333 C30.5914717,4.89494222 30.7481361,5.16883111 30.8971317,5.45751 C31.41889,5.51831333 32.3079333,5.63416833 32.8691317,5.77467333 C33.2005802,6.3624248 33.497433,6.9690251 33.758175,7.59137833 C33.339125,7.44512167 32.338335,7.09837833 31.539675,6.879815 C31.6645683,7.20108667 31.781245,7.53139667 31.88724,7.870745 C32.5733317,8.05151167 33.6226,8.34073833 34.122995,8.54944167 C34.3358713,9.1584201 34.5120244,9.77962026 34.650505,10.409695 C34.3169083,10.2453617 33.1854733,9.70059667 32.2758883,9.34152833 C32.3509339,9.68334167 32.4155717,10.0311806 32.4698017,10.385045 C33.1213833,10.666055 34.2774683,11.18617 34.8592083,11.5838567 C34.9465957,12.2193889 34.9907931,12.8601149 34.9914967,13.5016267 C34.9914967,13.5558567 34.9914967,13.6084433 34.9914967,13.6618517 C34.2887318,12.9717769 33.4977187,12.3777572 32.639065,11.8952683 C32.663715,12.2644706 32.6765878,12.6358639 32.6776833,13.0094483 C33.0622233,13.2436233 34.13532,13.9362883 34.9323367,14.8228667 C34.8664241,15.5319777 34.7472195,16.2351203 34.5757333,16.9263333 C33.973953,16.1267264 33.306942,15.3783659 32.5815483,14.688935 C32.5322483,15.1260617 32.4632283,15.55415 32.3785967,15.9732 C32.8995333,16.4892067 33.7639267,17.3946833 34.2133783,18.1481517 C33.9968417,18.7728537 33.7390939,19.3825 33.4418333,19.9730733 C33.299685,19.6813817 32.6382433,18.3560333 31.9866617,17.4908183 C31.8416509,17.9512866 31.6732647,18.4040645 31.4821583,18.84739 C31.8001433,19.3831167 32.4402217,20.4907233 32.7368433,21.2302233 C32.361611,21.8279062 31.9500018,22.4019638 31.5043433,22.94915 C31.4221767,22.6648533 31.0162733,21.3058167 30.6826767,20.4102 C30.4261849,20.8369785 30.1400915,21.2452519 29.8265,21.6320183 C30.0154833,22.241695 30.3688,23.415035 30.4986233,24.090445 C30.0623183,24.5448267 29.6038283,24.9762017 29.1297267,25.3853917 C28.9653933,24.524285 28.70739,23.331225 28.59893,22.8464417 C28.2526579,23.1182729 27.8673381,23.3362791 27.4559917,23.4930933 L27.6786633,26.5250433 C27.3015183,26.7978367 26.9194433,27.0615917 26.52833,27.3064483 C26.1396817,27.0599483 25.7584283,26.7978367 25.3779967,26.5250433 L25.60149,23.4848767 C25.1908384,23.3264079 24.8059489,23.1079346 24.4593733,22.8365817 C24.3525567,23.3189 24.0888017,24.5185333 23.9269333,25.3837483 C23.4528317,24.972915 22.9943417,24.5431833 22.5580367,24.0888017 C22.68786,23.41257 23.0419983,22.236765 23.2309817,21.6238017 C22.9167363,21.2391717 22.6300815,20.8328027 22.3731617,20.407735 C22.0354567,21.3041733 21.6336617,22.6591017 21.551495,22.9433983 C21.1053052,22.3966186 20.6936719,21.8225274 20.318995,21.2244717 C20.6139733,20.4907233 21.2483,19.3905117 21.5679283,18.8514983 C21.3776535,18.4102654 21.209819,17.9596902 21.0650683,17.5015 C20.4159517,18.366715 19.7602617,19.6822033 19.618935,19.9722517 C19.3212642,19.3813039 19.0635058,18.7710834 18.84739,18.1456867 C19.293555,17.39797 20.14891,16.5023533 20.67149,15.9814167 C20.5893233,15.5623667 20.516195,15.1342783 20.466895,14.6971517 C19.7470475,15.3846404 19.0850137,16.1302186 18.4875,16.9263333 C18.3164487,16.2351385 18.1980631,15.5319665 18.1333617,14.8228667 C18.9254483,13.94204 19.9878633,13.2534833 20.3789767,13.0152 C20.3789767,12.64052 20.3926711,12.268305 20.42006,11.898555 C19.5636609,12.3801329 18.7748441,12.9730579 18.0742017,13.6618517 C18.0742017,13.6084433 18.0742017,13.5558567 18.0742017,13.5016267 C18.0730732,12.8607935 18.1153488,12.2206197 18.2007383,11.5855 C18.7833,11.1878133 19.9360983,10.66852 20.5885017,10.38751 C20.6432794,10.0330978 20.7092867,9.68443722 20.7865233,9.34152833 C19.8769383,9.69731 18.74386,10.2453617 18.4094417,10.409695 C18.5473786,9.77813637 18.7235395,9.15553668 18.9369517,8.54533333 C19.43899,8.33580833 20.4981183,8.04493833 21.181745,7.86417167 C21.2893833,7.52400167 21.4077033,7.19287 21.5334183,6.87159833 C20.7364017,7.09344833 19.7257517,7.44019167 19.3042367,7.58727 C19.5656032,6.9650602 19.8627205,6.35848 20.1941017,5.770565 C20.7594083,5.62841667 21.6632417,5.51174 22.182535,5.45175833 C22.3337217,5.16527056 22.4917556,4.89138167 22.6566367,4.63009167 C21.9385,4.71883167 21.0248067,4.89056 20.6797067,4.95875833 C20.9902967,4.46575833 21.324715,3.9933 21.6829617,3.53398833 C22.2970792,3.47502605 22.9140429,3.45088519 23.53089,3.46168167 C23.7415808,3.22347402 23.9686385,3.00026013 24.2104083,2.79366667 C23.5391825,2.78755926 22.8682271,2.82323378 22.2014333,2.90048333 C22.4775133,2.57756833 22.7659183,2.26287 23.0658267,1.959675 C23.53582,1.48228667 23.488985,0.809341667 23.488985,0.809341667 C22.8376096,1.35263809 22.2281228,1.94427152 21.6657067,2.57921167 L21.6657067,2.57263833 C21.6418783,2.59975333 21.620515,2.62933333 21.5975083,2.654805 C18.8482117,5.78699833 17.28951,9.82959833 17.28951,13.495875 C17.28951,16.177795 17.858925,18.5409083 18.8506767,20.6180817 C18.6337567,20.5761767 17.8211283,20.4011617 16.6494317,19.9155567 C16.11124,19.6920633 15.73656,19.5236217 15.482665,19.4028367 C15.6543933,20.0314117 15.8515933,20.6410883 16.069335,21.22858 C16.5787683,21.4150983 17.7414267,21.7692367 19.554845,21.9294617 C19.8951736,22.496707 20.2688672,23.0432545 20.673955,23.5662217 C19.3774822,23.5277165 18.0889919,23.3489202 16.83102,23.03296 C17.1215378,23.6410778 17.445779,24.2325025 17.80223,24.8044733 C18.8416383,24.9227933 20.1949233,24.90636 21.692,24.7699633 C22.2045187,25.3241687 22.7479597,25.8489554 23.3197217,26.3418117 C22.4145506,26.4519534 21.5036335,26.5081998 20.5917883,26.5102533 C19.8588617,26.5028583 19.3395683,26.476565 19.002685,26.451915 C19.5885333,27.132255 20.18835,27.6564783 20.77009,27.9908967 C21.556425,27.8857233 23.1200567,27.6416883 24.42322,27.2349633 C24.7255933,27.4644822 25.0339922,27.6871539 25.3484167,27.9029783 L25.4470167,27.9695333 L20.0757817,31.2808519 L21.9122067,31.2808519 C22.3979457,31.2814465 22.8730342,31.1385198 23.2778167,30.8700167 L27.7148167,27.9120167 C32.3835267,24.6976567 35.7704367,20.0486667 35.7704367,13.4999833 L35.7704367,13.50327 Z M36.975,12.9543967 C36.69399,13.2723817 36.4458467,13.5295633 36.242895,13.72019 C36.242895,13.8615167 36.252755,14.003665 36.252755,14.1433483 C36.252755,14.41532 36.2445383,14.6823617 36.233035,14.9469383 C37.0818167,14.3347967 37.9749683,13.4457533 38.3389667,13.071895 C38.3249983,12.4687917 38.288845,11.8919817 38.22722,11.346395 C37.8520517,11.9139911 37.4333873,12.4516067 36.975,12.9543967 L36.975,12.9543967 Z" id="Shape" fill="url(#linearGradient-2)"></path>
                <path d="M26.622,11.1352267 L26.7863333,11.1352267 L26.7863333,12.27077 L28.108395,12.27077 L28.108395,12.9001667 L27.9440617,12.9001667 L27.9440617,12.3512933 L26.622,12.3512933 L26.622,11.1352267 Z M17.4029,18.4587417 C17.4752067,18.485035 17.5475133,18.51215 17.6206417,18.5409083 C17.4847928,18.1366483 17.3651033,17.7217067 17.2615733,17.2960833 C16.7061267,16.9723467 15.86474,16.4086833 14.7809617,15.458015 C14.787535,15.5401817 14.7990383,15.6223483 14.8064333,15.704515 C15.7998283,16.5541183 16.5730167,17.0742333 17.094775,17.37825 C17.188445,17.748 17.2927967,18.1046033 17.4061867,18.4587417 L17.4029,18.4587417 Z M30.6925367,2.98347167 L30.59065,2.86843833 C30.03356,2.81092167 29.4066283,2.79366667 28.877475,2.792845 C28.90952,2.81996 28.9399217,2.85118333 28.9703233,2.87501167 C29.546018,2.8775577 30.1210711,2.91377287 30.6925367,2.98347167 L30.6925367,2.98347167 Z M26.622,9.28483333 L26.622,10.503365 L27.9440617,10.503365 L27.9440617,11.0522383 L28.108395,11.0522383 L28.108395,10.419555 L26.792085,10.419555 L26.792085,9.28483333 L26.622,9.28483333 Z M28.11086,16.6034183 L28.11086,15.9715567 L26.792085,15.9715567 L26.792085,14.836835 L26.6277517,14.836835 L26.6277517,16.054545 L27.9498133,16.054545 L27.9498133,16.6034183 L28.11086,16.6034183 Z M31.2249767,2.66548667 C31.229085,2.58332 31.2299067,2.49540167 31.2307283,2.40748333 C30.714943,1.83822606 30.1606562,1.30507847 29.5717833,0.811806667 C29.5684737,0.89082361 29.5717719,0.969978933 29.5816433,1.04844667 C30.1665049,1.54954639 30.7166451,2.0898038 31.2282633,2.66548667 L31.2249767,2.66548667 Z M34.458235,16.7751467 C33.8870983,16.0311382 33.258515,15.333048 32.5782617,14.6872917 C32.570045,14.7595983 32.5585417,14.8302617 32.5495033,14.9017467 C33.2221632,15.5555225 33.8437897,16.2598312 34.408935,17.0085 C34.4278333,16.9312633 34.443445,16.8523833 34.4615217,16.7751467 L34.458235,16.7751467 Z M32.6456383,12.0785 C33.4367315,12.5426266 34.167749,13.1022731 34.8222333,13.74484 C34.8222333,13.6914317 34.8222333,13.6380233 34.8222333,13.5805067 C34.8222333,13.55257 34.8222333,13.5246333 34.8222333,13.49834 C34.1608563,12.8760854 33.4263927,12.3364119 32.6349567,11.89116 C32.6407083,11.9544283 32.6423517,12.0160533 32.6456383,12.0785 Z M31.4739417,0.454381667 L31.9529733,0.929305 C31.9496667,1.72900758 31.8922931,2.52757155 31.781245,3.31953333 C32.15517,3.78337513 32.50511,4.26605094 32.8296917,4.76566667 C32.8428383,4.70732833 32.860915,4.62269667 32.8814567,4.51423667 C32.589765,4.07711 32.2808183,3.64902167 31.948865,3.236545 C32.0591171,2.44478515 32.1162138,1.64652968 32.1197717,0.847138333 L31.6415617,0.372215 C31.490375,0.2465 31.3383667,0.12325 31.1863583,4.4408921e-16 C31.1962183,0.05916 31.209365,0.146256667 31.2249767,0.250608333 C31.3055,0.318806667 31.391775,0.386183333 31.4739417,0.454381667 Z M33.9792033,2.73204167 C33.86417,3.53316667 33.6406767,4.84783333 33.3350167,5.58733333 C33.7147614,6.24474695 34.0523256,6.9256386 34.3456667,7.62588833 C34.37196,7.56262 34.4048267,7.47963167 34.443445,7.37938833 C34.1663292,6.73684615 33.851917,6.11103976 33.501815,5.50516667 C33.807475,4.76566667 34.0309683,3.44607 34.1460017,2.64905333 C33.8847117,2.37516444 33.6171222,2.11058778 33.3432333,1.85532333 C33.3432333,1.93749 33.3350167,2.013905 33.3309083,2.09114167 C33.5502933,2.30066667 33.7705,2.51265667 33.9792033,2.73204167 Z M26.1010633,14.221985 L26.1010633,14.121985 L24.9466217,14.121985 L24.9466217,14.221985 L26.1010633,14.221985 Z M25.4396217,23.5711517 L25.2161283,26.6113183 C25.5932733,26.8841117 25.9745267,27.147045 26.3664617,27.3927233 C26.4157617,27.3615 26.46424,27.3278117 26.51354,27.2957667 C26.131465,27.0541967 25.756785,26.7953717 25.3862133,26.5275083 L25.6097067,23.4873417 C25.1990551,23.3288729 24.8141656,23.1103996 24.46759,22.8390467 C24.4569083,22.88999 24.4437617,22.9499717 24.4289717,23.0140617 C24.7398047,23.2430967 25.0796537,23.4298755 25.4396217,23.5695083 L25.4396217,23.5711517 Z M27.9473483,8.654615 L27.9473483,9.20266667 L28.1116817,9.20266667 L28.1116817,8.56998333 L24.9466217,8.56998333 L24.9466217,8.65215 L27.9473483,8.654615 Z M27.4543483,23.4947367 L27.4543483,23.508705 C27.5398017,23.4714561 27.625255,23.4311944 27.7107083,23.38792 C27.6268983,23.4257167 27.5406233,23.46187 27.45517,23.4930933 L27.4543483,23.4947367 Z M18.6847,20.706 L18.6238967,20.57289 C17.950048,20.4085977 17.2905704,20.1901458 16.6518967,19.919665 C16.113705,19.6961717 15.739025,19.52773 15.48513,19.406945 C15.502385,19.4702133 15.5229267,19.5310167 15.5410033,19.5934633 C15.7776433,19.7019233 16.08659,19.8399633 16.4850983,20.0042967 C17.6551517,20.4882583 18.46778,20.664095 18.6847,20.706 Z M26.1010633,10.5211983 L26.1010633,10.4211983 L24.9466217,10.4211983 L24.9466217,10.5211983 L26.1010633,10.5211983 Z M26.1010633,16.0723783 L26.1010633,15.9723783 L24.9466217,15.9723783 L24.9466217,16.0723783 L26.1010633,16.0723783 Z M26.1010633,12.3748783 L26.1010633,12.2748783 L24.9466217,12.2748783 L24.9466217,12.3748783 L26.1010633,12.3748783 Z M26.622,14.2041517 L27.9440617,14.2041517 L27.9440617,14.753025 L28.108395,14.753025 L28.108395,14.1211633 L26.792085,14.1211633 L26.792085,12.9864417 L26.6277517,12.9864417 L26.622,14.2041517 Z M33.3744567,19.84325 C33.1534283,19.4003717 32.565115,18.263185 31.983375,17.4908183 C31.96119,17.563125 31.9348967,17.6313233 31.9110683,17.7028083 C32.538,18.5696667 33.13946,19.77916 33.2775,20.0560617 C33.3103667,19.98622 33.3432333,19.9139133 33.3777433,19.84325 L33.3744567,19.84325 Z M28.9621067,25.4716667 C29.0146933,25.4256533 29.064815,25.377175 29.1174017,25.33034 C28.9530683,24.474985 28.7065683,23.3254733 28.5981083,22.8489067 C28.5447,22.8891683 28.4912917,22.9253217 28.4378833,22.9631183 C28.54963,23.4651567 28.8043467,24.6245283 28.9621067,25.4716667 Z M32.3095767,9.50504 C33.1780783,9.85835667 34.17476,10.3390317 34.4845283,10.49104 C34.47056,10.429415 34.4549483,10.36779 34.44098,10.306165 C33.970165,10.079385 33.0441467,9.64390167 32.27671,9.34317167 C32.2915,9.39329333 32.298895,9.44916667 32.3095767,9.502575 L32.3095767,9.50504 Z M33.329265,23.5892283 C34.2506517,23.5025443 35.1641939,23.3465335 36.0621283,23.1225217 C35.7832531,23.7049705 35.4735951,24.272174 35.1344667,24.8217283 L35.2577167,24.810225 C35.6138269,24.2383374 35.938058,23.6472054 36.2289267,23.0395333 C35.2937361,23.272343 34.3418321,23.4319552 33.3818517,23.5169217 C33.3645967,23.5391067 33.3456983,23.5621133 33.329265,23.5867633 L33.329265,23.5892283 Z M35.07202,20.4036267 C35.06709,20.4159517 35.0613383,20.427455 35.0564083,20.43978 C35.390005,20.333785 35.78687,20.19328 36.242895,20.0051183 C36.7810867,19.7824467 37.1557667,19.6131833 37.4104833,19.4923983 C37.24122,20.1111133 37.046485,20.7117517 36.8353167,21.2910267 L36.992255,21.235975 C37.209175,20.6476617 37.4030883,20.037985 37.578925,19.40941 C37.3242083,19.530195 36.95035,19.6986367 36.4113367,19.92213 C35.8846483,20.1374067 35.43191,20.2951667 35.07202,20.4011617 L35.07202,20.4036267 Z M30.4961583,4.750055 C31.1617083,4.84290333 31.909425,4.98340833 32.2142633,5.04174667 C32.185505,4.99737667 32.1542817,4.95465 32.126345,4.91028 C31.6990783,4.82811333 31.0031267,4.70732833 30.4271383,4.63502167 C30.450145,4.67199667 30.4731517,4.71225833 30.4961583,4.750055 Z M31.5947267,7.02196333 C32.34573,7.24134833 33.2076583,7.53632667 33.5889117,7.66943667 C33.565905,7.61356333 33.5404333,7.55851167 33.516605,7.50510333 C33.023605,7.33584 32.2109767,7.06386833 31.5404967,6.87652833 C31.559395,6.92336333 31.57665,6.97266333 31.5947267,7.02196333 L31.5947267,7.02196333 Z M37.603575,8.97917333 C37.2625833,9.57734667 36.647155,10.5879967 35.97421,11.4014467 C35.9799617,11.43267 35.9873567,11.4638933 35.9931083,11.4951167 C36.72357,10.6578383 37.40391,9.537085 37.7703733,8.896185 C37.6337715,8.39221801 37.4691828,7.89625753 37.2773733,7.41061167 L37.1705567,7.65711167 C37.3307817,8.08027 37.47786,8.51739667 37.603575,8.97917333 Z M30.7221167,26.5398333 C31.199505,26.575165 31.7533083,26.60228 32.30136,26.59735 C33.033465,26.5907767 33.5527583,26.5644833 33.8896417,26.5398333 C33.35145,27.1651217 32.801755,27.6556567 32.264385,27.9917183 L32.2898567,27.9917183 C32.8715967,27.6564783 33.4714133,27.1330767 34.05644,26.4527367 C33.7203783,26.4773867 33.2002633,26.50368 32.4681583,26.511075 C31.8929917,26.516005 31.3112517,26.4856033 30.824825,26.4478067 C30.7886717,26.481495 30.7549833,26.5094317 30.7221167,26.5398333 Z M31.4788717,22.8546583 C31.3564433,22.443825 30.9916233,21.2318667 30.681855,20.4093783 C30.6407717,20.4775767 30.5996883,20.5424883 30.5569617,20.6082217 C30.8856283,21.5013733 31.2594867,22.759345 31.34001,23.0313167 C31.3876667,22.9729783 31.4320367,22.9138183 31.4788717,22.8546583 L31.4788717,22.8546583 Z M28.21932,28.5331967 L32.6826133,31.28085 L32.9849867,31.28085 L28.3606467,28.433775 L28.21932,28.5331967 Z M21.181745,7.86335 C21.2893833,7.52318 21.4077033,7.19204833 21.5334183,6.87077667 C20.7364017,7.09262667 19.7257517,7.43937 19.3042367,7.58644833 C19.5581067,6.98238497 19.845874,6.39313426 20.166165,5.82150833 C20.11933,5.83136833 20.07003,5.84205 20.0273033,5.85273167 C19.6959222,6.44064667 19.3988049,7.04722687 19.1374383,7.66943667 C19.5589533,7.52235833 20.5696033,7.17643667 21.36662,6.95458667 C21.245835,7.26189 21.1332667,7.57905333 21.028915,7.90361167 L21.181745,7.86335 Z M35.7704367,13.4999833 C35.755248,11.8173358 35.4609277,10.1488729 34.89947,8.56258833 C35.4795667,7.69244333 36.04323,6.24466667 36.3250617,5.47065667 C36.0785617,5.05982333 35.8172717,4.66706667 35.54037,4.29238667 C35.523115,4.37455333 35.5042167,4.45672 35.4853183,4.53888667 C35.7211367,4.86755333 35.947095,5.20279333 36.1582633,5.55693167 C35.8764317,6.33422833 35.3127683,7.77543167 34.7326717,8.64886333 C35.2940568,10.235451 35.5883736,11.9041716 35.6036383,13.58708 C35.6036383,20.131655 32.2167283,24.7839317 27.5447317,27.9941833 L23.1077317,30.9521833 C23.0485717,30.9916233 22.9877683,31.0277767 22.9261433,31.061465 C23.0473941,31.0071288 23.1639233,30.9428179 23.27453,30.869195 L27.71153,27.911195 C32.3835267,24.6976567 35.7704367,20.0486667 35.7704367,13.4999833 L35.7704367,13.4999833 Z M38.0711033,11.5748183 C38.1228683,12.0801433 38.15327,12.6051883 38.1697033,13.1548833 C37.5662792,13.7826114 36.91999,14.367676 36.2355,14.905855 C36.2355,14.9198233 36.2355,14.9337917 36.2355,14.9469383 C37.0842817,14.3347967 37.9774333,13.4457533 38.3414317,13.071895 C38.3274633,12.4687917 38.29131,11.8919817 38.229685,11.346395 C38.19271,11.3989817 38.1417667,11.47704 38.07439,11.5748183 L38.0711033,11.5748183 Z M37.8788333,17.3642817 C37.657805,17.5006783 37.2823033,17.7200633 36.8106667,17.9583467 C37.3661133,17.6880183 37.8015967,17.4333017 38.0480967,17.2812933 C38.1499833,16.6787378 38.2258506,16.069335 38.2756983,15.453085 L38.1023267,15.6018067 C38.0530267,16.1966933 37.98072,16.7858283 37.8788333,17.3642817 Z M15.9173267,13.037385 C16.182725,13.3372933 16.4185433,13.579685 16.6149217,13.76949 C16.6256033,14.1326667 16.6494317,14.4884483 16.680655,14.8376567 C16.7431017,14.8844917 16.8047267,14.9296833 16.8663517,14.9740533 C16.823625,14.5525383 16.7948667,14.1236283 16.784185,13.6848583 C16.5878067,13.4942317 16.3519883,13.2526617 16.08659,12.9527533 C15.6283509,12.4486733 15.2097009,11.9099775 14.83437,11.341465 C14.8236883,11.4376 14.8179367,11.5394867 14.8088983,11.637265 C15.1495619,12.1260754 15.5197254,12.5936503 15.9173267,13.037385 L15.9173267,13.037385 Z M17.9016517,13.5837933 C17.9016517,13.6372017 17.9016517,13.69061 17.9016517,13.7481267 C17.94027,13.7086867 17.996965,13.653635 18.065985,13.5837933 C18.065985,13.5558567 18.065985,13.52792 18.065985,13.5016267 C18.0675796,12.8606076 18.1126005,12.2204329 18.2007383,11.5855 C18.4831271,11.401569 18.7764575,11.23501 19.0791,11.0867483 C18.7184016,11.2573568 18.3692673,11.4514117 18.03394,11.6676667 C17.9465992,12.3026528 17.9024017,12.9428291 17.9016517,13.5837933 Z M23.2359117,21.6287317 C22.9216663,21.2441017 22.6350115,20.8377327 22.3780917,20.412665 C22.3509767,20.4833283 22.3246833,20.5572783 22.295925,20.6328717 C22.529783,21.0086091 22.7874934,21.3689645 23.06747,21.71172 C22.8784867,22.3213967 22.5243483,23.4972017 22.394525,24.17672 C22.83083,24.6319233 23.28932,25.0632983 23.7634217,25.4724883 C23.7757467,25.4075767 23.7880717,25.3402 23.8012183,25.2728233 C23.37313,24.8973217 22.9573667,24.5062083 22.5613233,24.0937317 C22.69279,23.4175 23.0469283,22.2384083 23.2359117,21.6287317 Z M18.7693317,8.6275 C18.5557606,9.23632855 18.3793259,9.85755434 18.241,10.4877533 C18.5745967,10.32342 19.7084967,9.77783333 20.6180817,9.41958667 C20.5430361,9.75866111 20.4778506,10.1032133 20.422525,10.4532433 L20.5868583,10.3817583 C20.6416361,10.0273461 20.7076433,9.67868556 20.78488,9.33577667 C19.875295,9.69155833 18.7422167,10.23961 18.4077983,10.4039433 C18.5441881,9.7811173 18.7178726,9.16704777 18.9279133,8.56505333 C18.87204,8.58723833 18.8161667,8.60778 18.7693317,8.6275 Z M19.5556667,19.8448933 C19.2838553,19.2941167 19.0467526,18.7268814 18.8457467,18.1465083 C19.2919117,17.3987917 20.1472667,16.503175 20.6698467,15.9822383 C20.58768,15.5631883 20.5145517,15.1351 20.4652517,14.6979733 L20.3074917,14.84916 C20.3567917,15.2621844 20.4219772,15.66754 20.5030483,16.0652267 C19.9804683,16.5828767 19.1251133,17.48178 18.6789483,18.2303183 C18.8949161,18.8555053 19.1526792,19.4654623 19.4504933,20.0560617 C19.4735,20.0100483 19.5112967,19.9360983 19.5556667,19.8448933 Z M21.5161633,3.61533333 C21.1579167,4.07546667 20.8234983,4.55039 20.5129083,5.04010333 C20.8571867,4.97354833 21.7717017,4.80264167 22.4898383,4.71143667 C22.33783,4.94972 22.1932167,5.20443667 22.0535333,5.46161833 L22.182535,5.44682833 C22.3337217,5.16034056 22.4917556,4.88645167 22.6566367,4.62516167 C21.9385,4.71390167 21.0248067,4.88563 20.6797067,4.95382833 C20.9738633,4.49040833 21.2918483,4.03931333 21.6295533,3.60218667 L21.5161633,3.61533333 Z M20.4406017,23.5637567 C19.2231664,23.5085708 18.0142669,23.3321353 16.8318417,23.0370683 C16.8548483,23.084725 16.8786767,23.1299167 16.9016833,23.1767517 C18.0844892,23.4577269 19.2928045,23.6176794 20.5079783,23.65414 C20.4849717,23.62456 20.4595,23.5933367 20.4406017,23.5637567 Z M20.59261,26.5143617 C19.8596833,26.5069667 19.34039,26.4806733 19.0035067,26.4560233 C19.0330867,26.4905333 19.0634883,26.5225783 19.0930683,26.5562667 C19.421735,26.575165 19.8572183,26.5915983 20.4258117,26.59735 C21.3376839,26.5961482 22.2486519,26.5398987 23.153745,26.4289083 L23.0888333,26.3755 C22.2600306,26.468672 21.4266331,26.5150328 20.59261,26.5143617 L20.59261,26.5143617 Z M21.3871617,23.0313167 C21.4003083,22.986125 21.4224933,22.9113533 21.4512517,22.8168617 C21.0452642,22.3098254 20.6688634,21.7797916 20.323925,21.2294017 C20.6189033,20.4956533 21.25323,19.3954417 21.5728583,18.8564283 C21.3807583,18.4136765 21.2112765,17.9614508 21.0650683,17.5015 C21.0206983,17.5598383 20.97715,17.6214633 20.93278,17.68391 C21.0741067,18.1185717 21.2318667,18.5384433 21.40606,18.9394167 C21.0864317,19.4776083 20.452105,20.58275 20.1571267,21.31239 C20.5309845,21.9103932 20.9417944,22.4844844 21.3871617,23.0313167 L21.3871617,23.0313167 Z M18.4612067,16.8203383 C18.3042432,16.1626319 18.1944088,15.4945639 18.13254,14.8212233 C18.9246267,13.9403967 19.9870417,13.25184 20.378155,13.0135567 C20.378155,12.6388767 20.3918494,12.2666617 20.4192383,11.8969117 C20.3625433,11.928135 20.3074917,11.96018 20.254905,11.9930467 C20.2291594,12.3584144 20.215465,12.7262472 20.2138217,13.096545 C19.8227083,13.33565 18.7602933,14.023385 17.9682067,14.9042117 C18.0330424,15.6132941 18.1514263,16.3164559 18.322345,17.0076783 L18.4612067,16.8203383 Z M16.9592,10.1886667 C16.8885367,10.508295 16.8326633,10.828745 16.7825417,11.1475517 C16.8252683,11.2017817 16.8647083,11.2568333 16.9107217,11.311885 C16.9654994,10.9114594 17.0372583,10.5099383 17.1259983,10.1073217 C16.6147422,9.24157791 16.166063,8.34037526 15.783395,7.41061167 C15.7505283,7.49277833 15.72177,7.58151833 15.6905467,7.66532833 C16.0553278,8.53441788 16.4792041,9.3775034 16.9592,10.1886667 L16.9592,10.1886667 Z M22.8990283,2.04019833 C22.5993939,2.344215 22.3112628,2.65809167 22.034635,2.98182833 C22.7014119,2.90444922 23.3723925,2.86904779 24.04361,2.87583333 C23.8316077,3.05778609 23.6312725,3.25290712 23.4437933,3.46003833 L23.53089,3.46003833 C23.7416385,3.22239629 23.9686948,2.99973282 24.2104083,2.79366667 C23.5391825,2.78755926 22.8682271,2.82323378 22.2014333,2.90048333 C22.4775133,2.57756833 22.7659183,2.26287 23.0658267,1.959675 C23.53582,1.48228667 23.488985,0.809341667 23.488985,0.809341667 C23.43229,0.856176667 23.3788817,0.905476667 23.3246517,0.953133333 C23.3221867,1.12979167 23.2852117,1.65072833 22.8990283,2.04184167 L22.8990283,2.04019833 Z M18.0766667,6.83298 C17.94027,7.13535333 17.8161983,7.441835 17.6987,7.74913833 C17.72335,7.79926 17.7488217,7.85020333 17.7742933,7.89950333 C17.9164417,7.51332 18.0725583,7.12878 18.243465,6.74917 C17.9481136,5.94680581 17.7070946,5.12547453 17.5220417,4.29074333 C17.4735633,4.35647667 17.4283717,4.424675 17.3815367,4.49123 C17.5639619,5.28560448 17.7961295,6.06772928 18.0766667,6.83298 L18.0766667,6.83298 Z M21.51452,1.75918833 C21.3403267,1.93831167 21.17435,2.12400833 21.009195,2.309705 C21.009195,2.339285 21.009195,2.37215167 21.01659,2.40008833 C21.2302233,2.15249278 21.4517994,1.91092278 21.6813183,1.67537833 C21.7273317,0.959706667 21.8341483,0.250608333 21.8752317,0 C21.8415433,0.027115 21.77581,0.0821666667 21.69693,0.155295 C21.650095,0.450273333 21.556425,1.09939 21.5136983,1.75918833 L21.51452,1.75918833 Z M19.7413633,3.90538167 C19.5811383,4.13462667 19.4283083,4.36715833 19.2795867,4.602155 C19.2894467,4.64570333 19.3001283,4.68925167 19.31081,4.73115667 C19.4997933,4.42330556 19.6989106,4.12011056 19.9081617,3.82157167 C19.8117157,3.16954641 19.748912,2.51298694 19.72,1.85450167 C19.6649483,1.90708833 19.6123617,1.96296167 19.5556667,2.018835 C19.5926417,2.77148167 19.668235,3.42059833 19.7413633,3.90538167 Z" id="Shape" fill="url(#linearGradient-3)"></path>
                <path d="M33.2101233,48.4183517 L36.553485,48.4183517 L36.553485,49.1578517 L32.03021,49.1578517 L32.03021,44.0635183 L36.3645017,44.0635183 L36.3645017,44.7956233 L33.2101233,44.7956233 L33.2101233,46.132475 L35.2002,46.132475 L35.2002,46.8563633 L33.2101233,46.8563633 L33.2101233,48.4183517 Z M3.18560167,46.743795 L1.49461167,44.0610533 L0,44.0610533 L0,49.1553867 L0.849603333,49.1553867 L0.849603333,45.343675 L2.7608,48.3797333 L3.044275,48.3797333 L4.82154,45.35107 L4.82154,49.1586733 L5.99816667,49.1586733 L5.99816667,44.06434 L4.75909333,44.06434 L3.18560167,46.743795 Z M12.2666617,44.0610533 L11.109755,44.0610533 L8.69487667,49.1553867 L9.62336,49.1553867 L10.1516917,47.9508233 L12.721865,47.9508233 L13.2879933,49.1553867 L14.664285,49.1553867 L12.2666617,44.0610533 Z M10.4253067,47.315675 L11.3924083,45.146475 L12.4153833,47.315675 L10.4253067,47.315675 Z M24.5398967,44.7931583 L26.2711483,44.7931583 L26.2711483,49.1586733 L27.4436667,49.1586733 L27.4436667,44.7931583 L29.20532,44.7931583 L29.20532,44.0610533 L24.5398967,44.0610533 L24.5398967,44.7931583 Z M50.6771133,45.9171983 C49.90639,45.8629683 48.9146383,45.8547517 48.9146383,45.27219 C48.9146383,44.6896283 49.5990867,44.5959583 50.1422083,44.5959583 C50.9004097,44.6022238 51.6436479,44.8076557 52.29744,45.1916667 L52.7296367,44.5852767 C52.12489,44.19252 51.3377333,43.8934333 50.150425,43.8934333 C49.04857,43.8934333 47.7979933,44.3042667 47.7979933,45.5770283 C47.7979933,46.7643367 49.3008217,47.0634233 50.3541983,47.11108 C51.1175267,47.1423033 51.92769,47.1817433 51.92769,47.7873117 C51.92769,48.4241033 51.2703567,48.597475 50.3936383,48.597475 C49.5334492,48.5980525 48.6995992,48.3007467 48.0338117,47.7560883 L47.5408117,48.35344 C48.138985,48.8102867 49.0674683,49.297535 50.4281483,49.297535 C51.6080617,49.297535 53.0632333,48.8727333 53.0632333,47.4898683 C53.0607683,46.2401133 51.7000883,45.9878617 50.6771133,45.9171983 L50.6771133,45.9171983 Z M43.4661667,46.8440383 C43.899185,46.7963817 44.308375,46.6394433 44.5754167,46.3806183 C44.7937978,46.1730322 44.9208711,45.8872651 44.9287333,45.5860667 C44.9390644,45.2163271 44.8039455,44.8572882 44.55241,44.5860983 C44.1662267,44.209775 43.662545,44.0610533 42.5376833,44.0610533 L39.63227,44.0610533 L39.63227,49.1553867 L40.8121833,49.1553867 L40.8121833,47.0190533 L42.1654683,47.0190533 L43.509715,49.1553867 L44.9722817,49.1553867 L43.4661667,46.8440383 Z M40.8162917,46.3510383 L40.8162917,44.7438583 L42.3569167,44.7438583 C43.066015,44.7438583 43.6559717,44.855605 43.6559717,45.5540217 C43.6559717,46.0724933 43.1629717,46.3485733 42.5376833,46.3485733 L40.8162917,46.3510383 Z M19.9015883,45.9196633 C19.130865,45.8654333 18.139935,45.8572167 18.139935,45.274655 C18.139935,44.6920933 18.8243833,44.5984233 19.3666833,44.5984233 C20.1232647,44.6046588 20.8649804,44.8092114 21.5178067,45.1916667 L21.950825,44.5852767 C21.3452567,44.19252 20.5581,43.8934333 19.3707917,43.8934333 C18.2689367,43.8934333 17.01836,44.3042667 17.01836,45.5770283 C17.01836,46.7643367 18.5211883,47.0634233 19.574565,47.11108 C20.3378933,47.1423033 21.1480567,47.1817433 21.1480567,47.7873117 C21.1480567,48.4241033 20.4907233,48.597475 19.614005,48.597475 C18.7544233,48.5984229 17.9209719,48.3020265 17.255,47.7585533 L16.762,48.355905 C17.3601733,48.8127517 18.2886567,49.3 19.6493367,49.3 C20.82925,49.3 22.2844217,48.8751983 22.2844217,47.4923333 C22.281135,46.2401133 20.920455,45.9878617 19.89748,45.9171983 L19.9015883,45.9196633 Z M43.1868,38.5320583 L41.5114217,36.1952383 L40.0595367,36.1952383 L42.3487,39.2633417 L42.3487,41.2928583 L43.5286133,41.2928583 L43.5286133,39.2633417 L45.8728283,36.1952383 L44.8104133,36.1952383 L43.1868,38.5320583 Z M11.0218367,38.979045 C11.454855,38.93221 11.864045,38.77445 12.1310867,38.5164467 C12.348478,38.3078246 12.4753399,38.0222378 12.4844033,37.7210733 C12.4943838,37.3514861 12.358967,36.9927349 12.1072583,36.7219267 C11.7218967,36.3447817 11.2173933,36.1944167 10.0933533,36.1944167 L7.18711833,36.1944167 L7.18711833,41.28875 L8.36538833,41.28875 L8.36538833,39.1581683 L9.71867333,39.1581683 L11.0645633,41.28875 L12.5279517,41.28875 L11.0218367,38.979045 Z M8.36949667,38.486045 L8.36949667,36.8764 L9.911765,36.8764 C10.6208633,36.8764 11.2091767,36.9865033 11.2091767,37.6865633 C11.2091767,38.2058567 10.7219283,38.481115 10.0933533,38.481115 L8.36949667,38.486045 Z M20.1250817,40.8310817 C20.6180817,40.3750567 20.7150383,39.82454 20.7150383,39.3052467 L20.7150383,36.1927733 L19.8613267,36.1927733 L19.8613267,39.1976083 C19.8613267,40.078435 19.436525,40.73166 18.287835,40.73166 C17.2656817,40.73166 16.8252683,40.0743267 16.8252683,39.2214367 L16.8252683,36.1927733 L15.65275,36.1927733 L15.65275,39.3003167 C15.65275,39.9141017 15.7160183,40.40135 16.2353117,40.8655917 C16.6206733,41.2032967 17.2262417,41.4555483 18.194165,41.4555483 C19.1620883,41.4555483 19.7438283,41.1720733 20.1209733,40.8261517 L20.1250817,40.8310817 Z M28.083745,40.2616667 C27.7431911,40.591733 27.2833624,40.7696164 26.80934,40.7546667 C25.7625367,40.7546667 24.9762017,40.0077717 24.9762017,38.80403 C24.9762017,37.57646 25.653255,36.6956333 26.73046,36.6956333 C27.5521267,36.6956333 28.0993567,37.0571667 28.6737017,37.490185 L29.2316133,36.9240567 C28.53977,36.3653233 27.8240983,36.011185 26.737855,36.011185 C24.9523733,36.011185 23.5760817,37.1837033 23.5760817,38.8048517 C23.5760817,40.393955 25.0706933,41.463765 26.6680133,41.463765 C27.9966483,41.463765 28.6342617,41.0069183 29.3022767,40.4490067 L29.3022767,38.6183333 L28.083745,38.6183333 L28.083745,40.2616667 Z M36.55595,38.6183333 L36.55595,38.5706767 C37.1311167,38.50823 37.7991317,38.1466967 37.7991317,37.4762167 C37.8060236,37.2102295 37.71008,36.9518291 37.5312683,36.7547933 C37.2026017,36.376005 36.627435,36.1952383 35.5025733,36.1952383 L32.7089067,36.1952383 L32.7089067,41.2895717 L35.878075,41.2895717 C36.799985,41.2895717 37.36447,41.0784033 37.702175,40.73166 C37.9239858,40.5048691 38.0466406,40.1992665 38.0431667,39.8820567 C38.0431667,39.0004083 37.1393333,38.653665 36.55595,38.6183333 Z M33.891285,36.8928333 L35.1402183,36.8928333 C35.9676367,36.8928333 36.50172,36.97007 36.50172,37.6224733 C36.50172,38.0883583 36.1870217,38.3167817 35.39247,38.3167817 L33.891285,38.3167817 L33.891285,36.8928333 Z M35.40726,40.6043017 L33.891285,40.6043017 L33.891285,38.97658 L35.5173633,38.97658 C36.3751833,38.97658 36.6980983,39.3052467 36.6980983,39.81961 C36.6980983,40.51967 36.1401867,40.5969067 35.40726,40.5969067 L35.40726,40.6043017 Z" id="Shape" fill="#FFFFFF"></path>
            </g>
        </g>
    </g>
</svg>