<?xml version="1.0" encoding="UTF-8"?>
<svg width="27px" height="27px" viewBox="0 0 27 27" version="1.1" xmlns="http://www.w3.org/2000/svg" xmlns:xlink="http://www.w3.org/1999/xlink">
    <title>D6349938-894B-4186-B845-5CEDFB75DCAE</title>
    <defs>
        <linearGradient x1="24.229229%" y1="86.5011769%" x2="75.7687879%" y2="18.2348295%" id="linearGradient-1">
            <stop stop-color="#E15B11" offset="0%"></stop>
            <stop stop-color="#EB9845" offset="54%"></stop>
            <stop stop-color="#FFCE8E" offset="65%"></stop>
            <stop stop-color="#FFB677" offset="73%"></stop>
            <stop stop-color="#EF7D3F" offset="100%"></stop>
        </linearGradient>
        <linearGradient x1="29.5935949%" y1="96.3094243%" x2="68.9884673%" y2="5.92855231%" id="linearGradient-2">
            <stop stop-color="#E15B11" offset="0%"></stop>
            <stop stop-color="#EB9845" offset="54%"></stop>
            <stop stop-color="#FFCE8E" offset="64%"></stop>
            <stop stop-color="#FFB677" offset="72%"></stop>
            <stop stop-color="#EF7D3F" offset="100%"></stop>
        </linearGradient>
        <linearGradient x1="27.9265631%" y1="81.5970581%" x2="75.6425398%" y2="18.2453375%" id="linearGradient-3">
            <stop stop-color="#EB9845" offset="0%"></stop>
            <stop stop-color="#FFB677" offset="37%"></stop>
            <stop stop-color="#F8B789" offset="62%"></stop>
            <stop stop-color="#EF8F32" offset="84%"></stop>
            <stop stop-color="#F7BF88" offset="100%"></stop>
        </linearGradient>
    </defs>
    <g id="Desktop-UI" stroke="none" stroke-width="1" fill="none" fill-rule="evenodd">
        <g id="Class-Overview" transform="translate(-120.000000, -170.000000)">
            <g id="class_details_home_rugby_masters_logo" transform="translate(120.000000, 170.000000)">
                <rect id="Rectangle" x="0" y="0" width="27" height="27"></rect>
                <path d="M6.01486933,9.6096 C5.62992351,8.95774588 5.29209447,8.27919329 5.003968,7.579136 C4.85954546,7.94500854 4.73562007,8.31864358 4.632768,8.698304 C4.88827733,9.14683733 5.34856533,9.90594133 5.85277867,10.5165653 C5.894848,10.2150684 5.94887822,9.91274667 6.01486933,9.6096 Z M8.10967467,4.87741867 C8.03705651,4.38648201 7.989769,3.89213134 7.968,3.39633067 C7.76177778,3.590592 7.56029867,3.79000889 7.36356267,3.99458133 C7.43517662,4.52183176 7.53367292,5.04508045 7.65866667,5.56228267 C7.80178489,5.33213867 7.95212089,5.10385067 8.10967467,4.87741867 L8.10967467,4.87741867 Z M20.2206933,10.6551467 C20.770688,10.0247253 21.282944,9.180864 21.5588693,8.698304 C21.4560162,8.3188465 21.3320906,7.94541743 21.1876693,7.57975467 C20.696448,8.73789867 20.289984,9.44503467 20.0350933,9.83479467 C20.1074773,10.1082453 20.1687253,10.381696 20.2206933,10.6551467 Z M14.2882987,14.0256427 L13.292864,14.0256427 L13.292864,13.10816 L14.2882987,13.10816 L14.2882987,12.6324053 L13.292864,12.6324053 L13.292864,11.7130667 L14.2882987,11.7130667 L14.2882987,11.237312 L13.292864,11.237312 L13.292864,10.3216853 L14.2882987,10.3216853 L14.2882987,9.845312 L13.292864,9.845312 L13.292864,8.92906667 L14.2882987,8.92906667 L14.2882987,8.45269333 L11.9033387,8.45269333 L11.9033387,8.92906667 L12.8987733,8.92906667 L12.8987733,9.84593067 L11.9033387,9.84593067 L11.9033387,10.322304 L12.8987733,10.322304 L12.8987733,11.2397867 L11.9033387,11.2397867 L11.9033387,11.7130667 L12.8987733,11.7130667 L12.8987733,12.6305493 L11.9033387,12.6305493 L11.9033387,13.106304 L12.8987733,13.106304 L12.8987733,14.0237867 L11.9033387,14.0237867 L11.9033387,14.4995413 L14.2882987,14.4995413 L14.2882987,14.0256427 Z M6.8544,7.081728 C6.63201777,6.47759496 6.45054463,5.85918082 6.31121067,5.23067733 C6.09919313,5.51663956 5.90179193,5.81315433 5.71976533,6.11908267 C5.941684,6.74443162 6.20265629,7.35522663 6.50114133,7.94786133 C6.60693333,7.657088 6.72695467,7.367552 6.8544,7.081728 Z M9.44290133,3.26146133 C9.47754667,2.72260267 9.55797333,2.18869333 9.58890667,2 C9.47383467,2.0928 8.88610133,2.63722667 8.88610133,2.63722667 C8.88610133,3.08328533 8.91332267,3.486656 8.9424,3.80712533 C9.10407822,3.62111289 9.27132444,3.43922489 9.44413867,3.26146133 L9.44290133,3.26146133 Z M5.81937067,13.2758187 C5.7872,12.9584427 5.76554667,12.6354987 5.757504,12.3051307 C5.60964267,12.1616 5.43208533,11.979712 5.232256,11.7538987 C4.88722888,11.3743561 4.57201012,10.9687498 4.289408,10.5406933 C4.24362667,10.9539627 4.21640533,11.3882667 4.20526933,11.8398933 C4.48181333,12.128192 5.17162667,12.8142933 5.81937067,13.2758187 Z M14.4738987,23.40896 L14.3501653,23.4974293 L13.6424107,23.9700907 L15.5466667,25.240832 C15.851444,25.442999 16.2091578,25.5506145 16.5748907,25.5501667 L17.9576107,25.5501667 L14.4738987,23.40896 Z M16.3261867,21.9161173 C16.0317013,22.1908053 15.7262862,22.454976 15.4099413,22.7086293 C16.1944107,22.8979413 16.982592,23.0179627 17.4323627,23.0798293 C17.8703787,22.8274133 18.3220053,22.4333227 18.762496,21.9210667 C18.5094613,21.9396267 18.1178453,21.959424 17.5666133,21.964992 C17.134784,21.9674667 16.6955307,21.944576 16.3261867,21.9161173 Z M21.4134827,16.612288 C21.221696,16.703232 20.9402027,16.8300587 20.5343573,16.998336 C20.1390293,17.1622827 19.798144,17.278592 19.527168,17.3608747 C19.3781841,17.728437 19.2105129,18.0881452 19.0248107,18.438592 C20.0053973,18.3037227 20.6549973,18.102656 20.9717547,17.987584 C21.1350827,17.5446187 21.2835627,17.085568 21.4134827,16.612288 L21.4134827,16.612288 Z M20.3982507,19.3455573 C19.6941072,19.5208493 18.9773795,19.6410279 18.2545707,19.7050027 C18.0132907,20.0522809 17.7553067,20.3869796 17.4806187,20.7090987 C18.2090033,20.7590734 18.9402676,20.7489342 19.6669867,20.678784 C19.9351167,20.2481863 20.1792437,19.8030987 20.3982507,19.3455573 Z M6.119424,15.0204587 C5.70120533,14.776704 5.06769067,14.3522987 4.25166933,13.6365013 C4.28878933,14.1005013 4.34632533,14.5601707 4.42304,15.0117973 C5.04470147,15.3932552 5.70370218,15.710214 6.38978133,15.9577387 C6.28708267,15.6533547 6.19696356,15.340928 6.119424,15.0204587 Z M20.0159147,15.879168 C20.6249315,15.6435955 21.2115229,15.3537163 21.7685973,15.0130347 C21.845312,14.5593458 21.9024356,14.1005013 21.939968,13.6365013 C21.4040243,14.1144513 20.8293769,14.547144 20.2219307,14.9301333 C20.1658382,15.2543147 20.0971662,15.5706596 20.0159147,15.879168 Z M20.0530347,12.167168 C20.0415985,10.9002334 19.8199927,9.64397897 19.397248,8.4496 C19.8340267,7.79195733 20.258432,6.70186667 20.4706347,6.11908267 C20.2850347,5.80974933 20.0882987,5.51402667 19.879808,5.23191467 C19.6901086,6.06779006 19.4305953,6.88627111 19.104,7.67874133 C18.8839533,7.15184094 18.6304001,6.63956841 18.344896,6.14506667 C18.57504,5.58826667 18.7433173,4.594688 18.8299307,3.99458133 C18.6331947,3.78835911 18.4317156,3.58914844 18.2254933,3.39694933 C18.1964896,4.11268236 18.1091745,4.82485886 17.964416,5.5264 C17.7198632,5.15068088 17.4565984,4.78747867 17.175616,4.43816533 C17.2586293,3.84201674 17.3016198,3.24097733 17.3042987,2.63908267 L16.9442347,2.28149333 C16.8304,2.1856 16.7159467,2.0928 16.6014933,2 C16.6448,2.26912 16.7926613,3.254656 16.7586347,3.94385067 C16.3351684,3.46577808 15.8762607,3.02031291 15.3858133,2.61124267 C15.3858133,2.61124267 15.3505493,3.115456 15.7044267,3.477376 C15.93024,3.705664 16.1467733,3.94261333 16.355264,4.18574933 C15.8600345,4.12750902 15.3616705,4.10002875 14.86304,4.10346667 C15.0446344,4.25887355 15.2149881,4.42695315 15.3728213,4.60644267 C15.8308847,4.59971249 16.2889726,4.61809383 16.745024,4.661504 C17.0153813,5.00733867 17.2671787,5.36616533 17.5010347,5.734272 C17.2436693,5.68477867 16.5674667,5.557952 16.0298453,5.49051733 C16.1535787,5.68560356 16.2715378,5.89182578 16.3837227,6.109184 C16.776576,6.15496533 17.4459733,6.24219733 17.8685227,6.34798933 C18.1180839,6.79053161 18.3415966,7.24726596 18.53792,7.71586133 C18.2224,7.60573867 17.468864,7.34466133 16.86752,7.180096 C16.9615573,7.42199467 17.049408,7.67069867 17.129216,7.926208 C17.6458027,8.06231467 18.43584,8.28008533 18.812608,8.43722667 C18.9728913,8.8957516 19.1055242,9.36347879 19.209792,9.837888 C18.9586133,9.71415467 18.1067093,9.30397867 17.4218453,9.03362133 C17.4783502,9.29098667 17.5270187,9.55288889 17.5678507,9.819328 C18.0584533,10.030912 18.9289173,10.422528 19.3669333,10.7219627 C19.4327309,11.2004811 19.4660089,11.6829101 19.4665387,12.1659307 C19.4665387,12.2067627 19.4665387,12.2463573 19.4665387,12.2865707 C18.9373981,11.7669849 18.3418117,11.3197231 17.695296,10.9564373 C17.713856,11.2344249 17.7235484,11.5140622 17.7243733,11.7953493 C18.0139093,11.9716693 18.821888,12.4932053 19.4219947,13.1607467 C19.3723664,13.6946656 19.2826123,14.2240906 19.1534933,14.7445333 C18.7003881,14.1424763 18.1981681,13.5790049 17.6519893,13.059904 C17.6148693,13.3890347 17.5629013,13.71136 17.4991787,14.02688 C17.8914133,14.4154027 18.5422507,15.0971733 18.8806613,15.6644907 C18.717622,16.1348546 18.5235531,16.5938823 18.2997333,17.0385493 C18.192704,16.8189227 17.6946773,15.8210133 17.2040747,15.1695573 C17.0948901,15.5162628 16.9681052,15.857178 16.8242133,16.190976 C17.0636373,16.5943467 17.5455787,17.4283093 17.7689173,17.9851093 C17.4863894,18.4351294 17.1764719,18.867361 16.8409173,19.27936 C16.7790507,19.0653013 16.4734293,18.0420267 16.2222507,17.36768 C16.0291275,17.6890191 15.8137159,17.996425 15.5776,18.2876373 C15.7198933,18.746688 15.98592,19.630144 16.0836693,20.138688 C15.7551573,20.4808107 15.4099413,20.8056107 15.0529707,21.1137067 C14.9292373,20.465344 14.734976,19.56704 14.653312,19.2020267 C14.3925895,19.4066996 14.1024663,19.5708455 13.7927467,19.6889173 L13.9604053,21.9717973 C13.6764373,22.1771947 13.3887573,22.3757867 13.094272,22.5601493 C12.8016427,22.3745493 12.5145813,22.1771947 12.2281387,21.9717973 L12.396416,19.6827307 C12.0872195,19.563413 11.7974204,19.3989155 11.5364693,19.1946027 C11.4560427,19.55776 11.2574507,20.4610133 11.1355733,21.1124693 C10.7786027,20.803136 10.4333867,20.4795733 10.1048747,20.1374507 C10.202624,19.628288 10.4692693,18.742976 10.6115627,18.2814507 C10.3749544,17.9918469 10.1591202,17.685875 9.96567467,17.365824 C9.71140267,18.0407893 9.40887467,19.0609707 9.347008,19.2750293 C9.01105331,18.8633364 8.70111764,18.4310794 8.419008,17.9807787 C8.64110933,17.4283093 9.11872,16.5999147 9.35938133,16.1940693 C9.21611555,15.8618469 9.0897461,15.5225903 8.98075733,15.1776 C8.49201067,15.829056 7.99831467,16.8195413 7.891904,17.0379307 C7.66777542,16.5929818 7.47369846,16.1335216 7.310976,15.6626347 C7.646912,15.099648 8.290944,14.4253013 8.684416,14.0330667 C8.62254933,13.7175467 8.567488,13.3952213 8.530368,13.0660907 C7.98836514,13.5837293 7.48989264,14.1451057 7.04,14.7445333 C6.91120843,14.2241043 6.82207105,13.6946572 6.77335467,13.1607467 C7.36974933,12.497536 8.16968533,11.9790933 8.46417067,11.79968 C8.46417067,11.517568 8.47448178,11.237312 8.495104,10.958912 C7.85028583,11.3215118 7.25635321,11.7679494 6.72881067,12.2865707 C6.72881067,12.2463573 6.72881067,12.2067627 6.72881067,12.1659307 C6.72796099,11.683421 6.75979205,11.2014078 6.82408533,10.7232 C7.26272,10.4237653 8.13070933,10.032768 8.62193067,9.821184 C8.66317511,9.55433244 8.71287467,9.29181156 8.77102933,9.03362133 C8.08616533,9.301504 7.233024,9.71415467 6.98122667,9.837888 C7.08508506,9.3623615 7.21772382,8.89358056 7.37841067,8.43413333 C7.756416,8.27637333 8.55387733,8.05736533 9.068608,7.92125867 C9.14965333,7.66513067 9.23874133,7.415808 9.33339733,7.17390933 C8.73329067,7.34094933 7.97233067,7.60202667 7.65495467,7.712768 C7.85174831,7.24428062 8.07546016,6.78756141 8.32497067,6.344896 C8.75061333,6.23786667 9.43114667,6.150016 9.822144,6.10485333 C9.93597867,5.88914489 10.0549689,5.68292267 10.1791147,5.48618667 C9.6384,5.55300267 8.95044267,5.682304 8.69060267,5.73365333 C8.92445867,5.36245333 9.176256,5.00672 9.44599467,4.66088533 C9.90838908,4.6164902 10.3729264,4.59831356 10.837376,4.60644267 C10.9960138,4.42708632 11.1669749,4.25901939 11.3490133,4.10346667 C10.8436197,4.09886815 10.3384298,4.12572896 9.83637333,4.18389333 C10.0442453,3.94075733 10.2613973,3.703808 10.4872107,3.47552 C10.841088,3.11607467 10.805824,2.60938667 10.805824,2.60938667 C10.3153766,3.01845691 9.85646893,3.46392208 9.43300267,3.94199467 L9.43300267,3.93704533 C9.41506133,3.95746133 9.398976,3.97973333 9.38165333,3.998912 C7.31159467,6.35726933 6.137984,9.40110933 6.137984,12.1616 C6.137984,14.180928 6.56672,15.9602133 7.31345067,17.5242027 C7.15012267,17.4926507 6.53826133,17.3608747 5.65604267,16.9952427 C5.250816,16.8269653 4.968704,16.7001387 4.777536,16.6091947 C4.90683733,17.0824747 5.05531733,17.5415253 5.219264,17.983872 C5.60283733,18.1243093 6.47825067,18.3909547 7.843648,18.5115947 C8.0998954,18.938697 8.38126471,19.3502151 8.686272,19.7439787 C7.71010428,19.7149865 6.73994688,19.5803635 5.792768,19.342464 C6.01151084,19.800341 6.25564537,20.245649 6.524032,20.6763093 C7.30664533,20.7653973 8.32558933,20.753024 9.4528,20.6503253 C9.83869645,21.0676094 10.2478755,21.4627429 10.6783787,21.8338347 C9.99683812,21.9167649 9.3109711,21.9591151 8.62440533,21.9606613 C8.07255467,21.9550933 7.68155733,21.935296 7.427904,21.916736 C7.86901333,22.428992 8.32064,22.8237013 8.758656,23.0754987 C9.35072,22.9963093 10.5280427,22.8125653 11.509248,22.5063253 C11.7369173,22.6791396 11.9691236,22.8467982 12.2058667,23.0093013 L12.2801067,23.0594133 L8.23588267,25.5526414 L9.61860267,25.5526414 C9.98433556,25.5530891 10.3420493,25.4454737 10.6468267,25.2433067 L13.9876267,23.0161067 C17.5028907,20.5958827 20.0530347,17.0954667 20.0530347,12.1646933 L20.0530347,12.167168 Z M20.96,11.7538987 C20.748416,11.9933227 20.5615787,12.1869653 20.408768,12.330496 C20.408768,12.4369067 20.416192,12.543936 20.416192,12.6491093 C20.416192,12.853888 20.4100053,13.0549547 20.401344,13.2541653 C21.0404267,12.7932587 21.7129173,12.1238613 21.9869867,11.842368 C21.9764693,11.3882667 21.949248,10.9539627 21.902848,10.543168 C21.6203683,10.9705345 21.3051387,11.3753274 20.96,11.7538987 L20.96,11.7538987 Z" id="Shape" fill="url(#linearGradient-1)" fill-rule="nonzero"></path>
                <path d="M6.01486933,9.6096 C5.62992351,8.95774588 5.29209447,8.27919329 5.003968,7.579136 C4.85954546,7.94500854 4.73562007,8.31864358 4.632768,8.698304 C4.88827733,9.14683733 5.34856533,9.90594133 5.85277867,10.5165653 C5.894848,10.2150684 5.94887822,9.91274667 6.01486933,9.6096 Z M8.10967467,4.87741867 C8.03705651,4.38648201 7.989769,3.89213134 7.968,3.39633067 C7.76177778,3.590592 7.56029867,3.79000889 7.36356267,3.99458133 C7.43517662,4.52183176 7.53367292,5.04508045 7.65866667,5.56228267 C7.80178489,5.33213867 7.95212089,5.10385067 8.10967467,4.87741867 L8.10967467,4.87741867 Z M20.2206933,10.6551467 C20.770688,10.0247253 21.282944,9.180864 21.5588693,8.698304 C21.4560162,8.3188465 21.3320906,7.94541743 21.1876693,7.57975467 C20.696448,8.73789867 20.289984,9.44503467 20.0350933,9.83479467 C20.1074773,10.1082453 20.1687253,10.381696 20.2206933,10.6551467 Z M14.2882987,14.0256427 L13.292864,14.0256427 L13.292864,13.10816 L14.2882987,13.10816 L14.2882987,12.6324053 L13.292864,12.6324053 L13.292864,11.7130667 L14.2882987,11.7130667 L14.2882987,11.237312 L13.292864,11.237312 L13.292864,10.3216853 L14.2882987,10.3216853 L14.2882987,9.845312 L13.292864,9.845312 L13.292864,8.92906667 L14.2882987,8.92906667 L14.2882987,8.45269333 L11.9033387,8.45269333 L11.9033387,8.92906667 L12.8987733,8.92906667 L12.8987733,9.84593067 L11.9033387,9.84593067 L11.9033387,10.322304 L12.8987733,10.322304 L12.8987733,11.2397867 L11.9033387,11.2397867 L11.9033387,11.7130667 L12.8987733,11.7130667 L12.8987733,12.6305493 L11.9033387,12.6305493 L11.9033387,13.106304 L12.8987733,13.106304 L12.8987733,14.0237867 L11.9033387,14.0237867 L11.9033387,14.4995413 L14.2882987,14.4995413 L14.2882987,14.0256427 Z M6.8544,7.081728 C6.63201777,6.47759496 6.45054463,5.85918082 6.31121067,5.23067733 C6.09919313,5.51663956 5.90179193,5.81315433 5.71976533,6.11908267 C5.941684,6.74443162 6.20265629,7.35522663 6.50114133,7.94786133 C6.60693333,7.657088 6.72695467,7.367552 6.8544,7.081728 Z M9.44290133,3.26146133 C9.47754667,2.72260267 9.55797333,2.18869333 9.58890667,2 C9.47383467,2.0928 8.88610133,2.63722667 8.88610133,2.63722667 C8.88610133,3.08328533 8.91332267,3.486656 8.9424,3.80712533 C9.10407822,3.62111289 9.27132444,3.43922489 9.44413867,3.26146133 L9.44290133,3.26146133 Z M5.81937067,13.2758187 C5.7872,12.9584427 5.76554667,12.6354987 5.757504,12.3051307 C5.60964267,12.1616 5.43208533,11.979712 5.232256,11.7538987 C4.88722888,11.3743561 4.57201012,10.9687498 4.289408,10.5406933 C4.24362667,10.9539627 4.21640533,11.3882667 4.20526933,11.8398933 C4.48181333,12.128192 5.17162667,12.8142933 5.81937067,13.2758187 Z M14.4738987,23.40896 L14.3501653,23.4974293 L13.6424107,23.9700907 L15.5466667,25.240832 C15.851444,25.442999 16.2091578,25.5506145 16.5748907,25.5501667 L17.9576107,25.5501667 L14.4738987,23.40896 Z M16.3261867,21.9161173 C16.0317013,22.1908053 15.7262862,22.454976 15.4099413,22.7086293 C16.1944107,22.8979413 16.982592,23.0179627 17.4323627,23.0798293 C17.8703787,22.8274133 18.3220053,22.4333227 18.762496,21.9210667 C18.5094613,21.9396267 18.1178453,21.959424 17.5666133,21.964992 C17.134784,21.9674667 16.6955307,21.944576 16.3261867,21.9161173 Z M21.4134827,16.612288 C21.221696,16.703232 20.9402027,16.8300587 20.5343573,16.998336 C20.1390293,17.1622827 19.798144,17.278592 19.527168,17.3608747 C19.3781841,17.728437 19.2105129,18.0881452 19.0248107,18.438592 C20.0053973,18.3037227 20.6549973,18.102656 20.9717547,17.987584 C21.1350827,17.5446187 21.2835627,17.085568 21.4134827,16.612288 L21.4134827,16.612288 Z M20.3982507,19.3455573 C19.6941072,19.5208493 18.9773795,19.6410279 18.2545707,19.7050027 C18.0132907,20.0522809 17.7553067,20.3869796 17.4806187,20.7090987 C18.2090033,20.7590734 18.9402676,20.7489342 19.6669867,20.678784 C19.9351167,20.2481863 20.1792437,19.8030987 20.3982507,19.3455573 Z M6.119424,15.0204587 C5.70120533,14.776704 5.06769067,14.3522987 4.25166933,13.6365013 C4.28878933,14.1005013 4.34632533,14.5601707 4.42304,15.0117973 C5.04470147,15.3932552 5.70370218,15.710214 6.38978133,15.9577387 C6.28708267,15.6533547 6.19696356,15.340928 6.119424,15.0204587 Z M20.0159147,15.879168 C20.6249315,15.6435955 21.2115229,15.3537163 21.7685973,15.0130347 C21.845312,14.5593458 21.9024356,14.1005013 21.939968,13.6365013 C21.4040243,14.1144513 20.8293769,14.547144 20.2219307,14.9301333 C20.1658382,15.2543147 20.0971662,15.5706596 20.0159147,15.879168 Z M20.0530347,12.167168 C20.0415985,10.9002334 19.8199927,9.64397897 19.397248,8.4496 C19.8340267,7.79195733 20.258432,6.70186667 20.4706347,6.11908267 C20.2850347,5.80974933 20.0882987,5.51402667 19.879808,5.23191467 C19.6901086,6.06779006 19.4305953,6.88627111 19.104,7.67874133 C18.8839533,7.15184094 18.6304001,6.63956841 18.344896,6.14506667 C18.57504,5.58826667 18.7433173,4.594688 18.8299307,3.99458133 C18.6331947,3.78835911 18.4317156,3.58914844 18.2254933,3.39694933 C18.1964896,4.11268236 18.1091745,4.82485886 17.964416,5.5264 C17.7198632,5.15068088 17.4565984,4.78747867 17.175616,4.43816533 C17.2586293,3.84201674 17.3016198,3.24097733 17.3042987,2.63908267 L16.9442347,2.28149333 C16.8304,2.1856 16.7159467,2.0928 16.6014933,2 C16.6448,2.26912 16.7926613,3.254656 16.7586347,3.94385067 C16.3351684,3.46577808 15.8762607,3.02031291 15.3858133,2.61124267 C15.3858133,2.61124267 15.3505493,3.115456 15.7044267,3.477376 C15.93024,3.705664 16.1467733,3.94261333 16.355264,4.18574933 C15.8600345,4.12750902 15.3616705,4.10002875 14.86304,4.10346667 C15.0446344,4.25887355 15.2149881,4.42695315 15.3728213,4.60644267 C15.8308847,4.59971249 16.2889726,4.61809383 16.745024,4.661504 C17.0153813,5.00733867 17.2671787,5.36616533 17.5010347,5.734272 C17.2436693,5.68477867 16.5674667,5.557952 16.0298453,5.49051733 C16.1535787,5.68560356 16.2715378,5.89182578 16.3837227,6.109184 C16.776576,6.15496533 17.4459733,6.24219733 17.8685227,6.34798933 C18.1180839,6.79053161 18.3415966,7.24726596 18.53792,7.71586133 C18.2224,7.60573867 17.468864,7.34466133 16.86752,7.180096 C16.9615573,7.42199467 17.049408,7.67069867 17.129216,7.926208 C17.6458027,8.06231467 18.43584,8.28008533 18.812608,8.43722667 C18.9728913,8.8957516 19.1055242,9.36347879 19.209792,9.837888 C18.9586133,9.71415467 18.1067093,9.30397867 17.4218453,9.03362133 C17.4783502,9.29098667 17.5270187,9.55288889 17.5678507,9.819328 C18.0584533,10.030912 18.9289173,10.422528 19.3669333,10.7219627 C19.4327309,11.2004811 19.4660089,11.6829101 19.4665387,12.1659307 C19.4665387,12.2067627 19.4665387,12.2463573 19.4665387,12.2865707 C18.9373981,11.7669849 18.3418117,11.3197231 17.695296,10.9564373 C17.713856,11.2344249 17.7235484,11.5140622 17.7243733,11.7953493 C18.0139093,11.9716693 18.821888,12.4932053 19.4219947,13.1607467 C19.3723664,13.6946656 19.2826123,14.2240906 19.1534933,14.7445333 C18.7003881,14.1424763 18.1981681,13.5790049 17.6519893,13.059904 C17.6148693,13.3890347 17.5629013,13.71136 17.4991787,14.02688 C17.8914133,14.4154027 18.5422507,15.0971733 18.8806613,15.6644907 C18.717622,16.1348546 18.5235531,16.5938823 18.2997333,17.0385493 C18.192704,16.8189227 17.6946773,15.8210133 17.2040747,15.1695573 C17.0948901,15.5162628 16.9681052,15.857178 16.8242133,16.190976 C17.0636373,16.5943467 17.5455787,17.4283093 17.7689173,17.9851093 C17.4863894,18.4351294 17.1764719,18.867361 16.8409173,19.27936 C16.7790507,19.0653013 16.4734293,18.0420267 16.2222507,17.36768 C16.0291275,17.6890191 15.8137159,17.996425 15.5776,18.2876373 C15.7198933,18.746688 15.98592,19.630144 16.0836693,20.138688 C15.7551573,20.4808107 15.4099413,20.8056107 15.0529707,21.1137067 C14.9292373,20.465344 14.734976,19.56704 14.653312,19.2020267 C14.3925895,19.4066996 14.1024663,19.5708455 13.7927467,19.6889173 L13.9604053,21.9717973 C13.6764373,22.1771947 13.3887573,22.3757867 13.094272,22.5601493 C12.8016427,22.3745493 12.5145813,22.1771947 12.2281387,21.9717973 L12.396416,19.6827307 C12.0872195,19.563413 11.7974204,19.3989155 11.5364693,19.1946027 C11.4560427,19.55776 11.2574507,20.4610133 11.1355733,21.1124693 C10.7786027,20.803136 10.4333867,20.4795733 10.1048747,20.1374507 C10.202624,19.628288 10.4692693,18.742976 10.6115627,18.2814507 C10.3749544,17.9918469 10.1591202,17.685875 9.96567467,17.365824 C9.71140267,18.0407893 9.40887467,19.0609707 9.347008,19.2750293 C9.01105331,18.8633364 8.70111764,18.4310794 8.419008,17.9807787 C8.64110933,17.4283093 9.11872,16.5999147 9.35938133,16.1940693 C9.21611555,15.8618469 9.0897461,15.5225903 8.98075733,15.1776 C8.49201067,15.829056 7.99831467,16.8195413 7.891904,17.0379307 C7.66777542,16.5929818 7.47369846,16.1335216 7.310976,15.6626347 C7.646912,15.099648 8.290944,14.4253013 8.684416,14.0330667 C8.62254933,13.7175467 8.567488,13.3952213 8.530368,13.0660907 C7.98836514,13.5837293 7.48989264,14.1451057 7.04,14.7445333 C6.91120843,14.2241043 6.82207105,13.6946572 6.77335467,13.1607467 C7.36974933,12.497536 8.16968533,11.9790933 8.46417067,11.79968 C8.46417067,11.517568 8.47448178,11.237312 8.495104,10.958912 C7.85028583,11.3215118 7.25635321,11.7679494 6.72881067,12.2865707 C6.72881067,12.2463573 6.72881067,12.2067627 6.72881067,12.1659307 C6.72796099,11.683421 6.75979205,11.2014078 6.82408533,10.7232 C7.26272,10.4237653 8.13070933,10.032768 8.62193067,9.821184 C8.66317511,9.55433244 8.71287467,9.29181156 8.77102933,9.03362133 C8.08616533,9.301504 7.233024,9.71415467 6.98122667,9.837888 C7.08508506,9.3623615 7.21772382,8.89358056 7.37841067,8.43413333 C7.756416,8.27637333 8.55387733,8.05736533 9.068608,7.92125867 C9.14965333,7.66513067 9.23874133,7.415808 9.33339733,7.17390933 C8.73329067,7.34094933 7.97233067,7.60202667 7.65495467,7.712768 C7.85174831,7.24428062 8.07546016,6.78756141 8.32497067,6.344896 C8.75061333,6.23786667 9.43114667,6.150016 9.822144,6.10485333 C9.93597867,5.88914489 10.0549689,5.68292267 10.1791147,5.48618667 C9.6384,5.55300267 8.95044267,5.682304 8.69060267,5.73365333 C8.92445867,5.36245333 9.176256,5.00672 9.44599467,4.66088533 C9.90838908,4.6164902 10.3729264,4.59831356 10.837376,4.60644267 C10.9960138,4.42708632 11.1669749,4.25901939 11.3490133,4.10346667 C10.8436197,4.09886815 10.3384298,4.12572896 9.83637333,4.18389333 C10.0442453,3.94075733 10.2613973,3.703808 10.4872107,3.47552 C10.841088,3.11607467 10.805824,2.60938667 10.805824,2.60938667 C10.3153766,3.01845691 9.85646893,3.46392208 9.43300267,3.94199467 L9.43300267,3.93704533 C9.41506133,3.95746133 9.398976,3.97973333 9.38165333,3.998912 C7.31159467,6.35726933 6.137984,9.40110933 6.137984,12.1616 C6.137984,14.180928 6.56672,15.9602133 7.31345067,17.5242027 C7.15012267,17.4926507 6.53826133,17.3608747 5.65604267,16.9952427 C5.250816,16.8269653 4.968704,16.7001387 4.777536,16.6091947 C4.90683733,17.0824747 5.05531733,17.5415253 5.219264,17.983872 C5.60283733,18.1243093 6.47825067,18.3909547 7.843648,18.5115947 C8.0998954,18.938697 8.38126471,19.3502151 8.686272,19.7439787 C7.71010428,19.7149865 6.73994688,19.5803635 5.792768,19.342464 C6.01151084,19.800341 6.25564537,20.245649 6.524032,20.6763093 C7.30664533,20.7653973 8.32558933,20.753024 9.4528,20.6503253 C9.83869645,21.0676094 10.2478755,21.4627429 10.6783787,21.8338347 C9.99683812,21.9167649 9.3109711,21.9591151 8.62440533,21.9606613 C8.07255467,21.9550933 7.68155733,21.935296 7.427904,21.916736 C7.86901333,22.428992 8.32064,22.8237013 8.758656,23.0754987 C9.35072,22.9963093 10.5280427,22.8125653 11.509248,22.5063253 C11.7369173,22.6791396 11.9691236,22.8467982 12.2058667,23.0093013 L12.2801067,23.0594133 L8.23588267,25.5526414 L9.61860267,25.5526414 C9.98433556,25.5530891 10.3420493,25.4454737 10.6468267,25.2433067 L13.9876267,23.0161067 C17.5028907,20.5958827 20.0530347,17.0954667 20.0530347,12.1646933 L20.0530347,12.167168 Z M20.96,11.7538987 C20.748416,11.9933227 20.5615787,12.1869653 20.408768,12.330496 C20.408768,12.4369067 20.416192,12.543936 20.416192,12.6491093 C20.416192,12.853888 20.4100053,13.0549547 20.401344,13.2541653 C21.0404267,12.7932587 21.7129173,12.1238613 21.9869867,11.842368 C21.9764693,11.3882667 21.949248,10.9539627 21.902848,10.543168 C21.6203683,10.9705345 21.3051387,11.3753274 20.96,11.7538987 L20.96,11.7538987 Z" id="Shape" fill="url(#linearGradient-2)" fill-rule="nonzero"></path>
                <path d="M13.1648,10.3841707 L13.2885333,10.3841707 L13.2885333,11.239168 L14.283968,11.239168 L14.283968,11.7130667 L14.1602347,11.7130667 L14.1602347,11.2997973 L13.1648,11.2997973 L13.1648,10.3841707 Z M6.22336,15.8983467 C6.27780267,15.918144 6.33224533,15.93856 6.38730667,15.9602133 C6.28502044,15.6558293 6.19490133,15.3434027 6.11694933,15.0229333 C5.69873067,14.7791787 5.065216,14.3547733 4.24919467,13.638976 C4.254144,13.7008427 4.26280533,13.7627093 4.26837333,13.824576 C5.01634133,14.4642773 5.59850667,14.8558933 5.99136,15.0848 C6.061888,15.3632 6.14045867,15.6317013 6.22583467,15.8983467 L6.22336,15.8983467 Z M16.2296747,4.24637867 L16.15296,4.15976533 C15.733504,4.11645867 15.2614613,4.10346667 14.86304,4.102848 C14.887168,4.123264 14.9100587,4.14677333 14.9329493,4.16471467 C15.3664136,4.16663168 15.7993947,4.19389958 16.2296747,4.24637867 L16.2296747,4.24637867 Z M13.1648,8.99093333 L13.1648,9.908416 L14.1602347,9.908416 L14.1602347,10.3216853 L14.283968,10.3216853 L14.283968,9.845312 L13.292864,9.845312 L13.292864,8.99093333 L13.1648,8.99093333 Z M14.285824,14.5013973 L14.285824,14.0256427 L13.292864,14.0256427 L13.292864,13.171264 L13.1691307,13.171264 L13.1691307,14.088128 L14.1645653,14.088128 L14.1645653,14.5013973 L14.285824,14.5013973 Z M16.6305707,4.00695467 C16.633664,3.945088 16.6342827,3.87889067 16.6349013,3.81269333 C16.2465453,3.3840761 15.8292,2.98264732 15.3858133,2.61124267 C15.3833214,2.67073778 15.3858047,2.73033708 15.3932373,2.78941867 C15.8336037,3.16671728 16.2478269,3.57349933 16.6330453,4.00695467 L16.6305707,4.00695467 Z M19.065024,14.6306987 C18.6349917,14.070504 18.1617054,13.5448832 17.6495147,13.0586667 C17.643328,13.1131093 17.6346667,13.1663147 17.6278613,13.2201387 C18.1343346,13.7123934 18.6023829,14.2426964 19.027904,14.8064 C19.0421333,14.7482453 19.053888,14.6888533 19.0674987,14.6306987 L19.065024,14.6306987 Z M17.7002453,11.0944 C18.295892,11.4438601 18.8463051,11.8652409 19.3390933,12.349056 C19.3390933,12.3088427 19.3390933,12.2686293 19.3390933,12.2253227 C19.3390933,12.204288 19.3390933,12.1832533 19.3390933,12.163456 C18.8411154,11.6949349 18.2881075,11.2885925 17.6922027,10.953344 C17.6965333,11.0009813 17.6977707,11.0473813 17.7002453,11.0944 Z M16.8180267,2.34212267 L17.1787093,2.699712 C17.1762197,3.301841 17.1330207,3.9031127 17.049408,4.49941333 C17.3309515,4.84865892 17.5944358,5.21208541 17.8388267,5.58826667 C17.8487253,5.54434133 17.862336,5.48061867 17.8778027,5.39895467 C17.658176,5.069824 17.4255573,4.74749867 17.175616,4.436928 C17.2586293,3.84077941 17.3016198,3.23973999 17.3042987,2.63784533 L16.9442347,2.280256 C16.8304,2.1856 16.7159467,2.0928 16.6014933,2 C16.6089173,2.044544 16.618816,2.11012267 16.6305707,2.18869333 C16.6912,2.24004267 16.75616,2.29077333 16.8180267,2.34212267 Z M18.7043413,4.05706667 C18.617728,4.66026667 18.4494507,5.65013333 18.2193067,6.20693333 C18.5052321,6.70192711 18.7593981,7.21459848 18.9802667,7.74184533 C19.000064,7.694208 19.0248107,7.63172267 19.053888,7.55624533 C18.8452361,7.07244887 18.6085022,6.60125346 18.344896,6.14506667 C18.57504,5.58826667 18.7433173,4.594688 18.8299307,3.99458133 C18.6331947,3.78835911 18.4317156,3.58914844 18.2254933,3.39694933 C18.2254933,3.458816 18.2193067,3.516352 18.2162133,3.57450667 C18.3813973,3.73226667 18.5472,3.89188267 18.7043413,4.05706667 Z M12.7725653,12.733024 L12.7725653,12.633024 L11.9033387,12.633024 L11.9033387,12.733024 L12.7725653,12.733024 Z M12.2745387,19.7476907 L12.1062613,22.0367573 C12.3902293,22.2421547 12.6772907,22.440128 12.9723947,22.6251093 C13.0095147,22.6016 13.046016,22.5762347 13.083136,22.5521067 C12.795456,22.3702187 12.513344,22.1753387 12.2343253,21.9736533 L12.4026027,19.6845867 C12.0934062,19.565269 11.803607,19.4007715 11.542656,19.1964587 C11.5346133,19.234816 11.5247147,19.2799787 11.5135787,19.3282347 C11.7476177,19.5006846 12.003504,19.641318 12.2745387,19.7464533 L12.2745387,19.7476907 Z M14.1627093,8.516416 L14.1627093,8.92906667 L14.2864427,8.92906667 L14.2864427,8.45269333 L11.9033387,8.45269333 L11.9033387,8.51456 L14.1627093,8.516416 Z M13.7915093,19.6981634 L13.7915093,19.709728 C13.8558507,19.678889 13.920192,19.6455557 13.9845333,19.609728 C13.9214293,19.6410205 13.8564693,19.6709525 13.792128,19.6968028 L13.7915093,19.6981634 Z M7.18848,17.5904 L7.14269867,17.490176 C6.63533026,17.3664736 6.13878242,17.2019921 5.65789867,16.998336 C5.252672,16.8300587 4.97056,16.703232 4.779392,16.612288 C4.792384,16.6599253 4.80785067,16.7057067 4.82146133,16.7527253 C4.99963733,16.8343893 5.232256,16.9383253 5.53230933,17.0620587 C6.41329067,17.4264533 7.025152,17.558848 7.18848,17.5904 Z M12.7725653,9.94654933 L12.7725653,9.84654933 L11.9033387,9.84654933 L11.9033387,9.94654933 L12.7725653,9.94654933 Z M12.7725653,14.1262613 L12.7725653,14.0262613 L11.9033387,14.0262613 L11.9033387,14.1262613 L12.7725653,14.1262613 Z M12.7725653,11.3422613 L12.7725653,11.2422613 L11.9033387,11.2422613 L11.9033387,11.3422613 L12.7725653,11.3422613 Z M13.1648,12.6948907 L14.1602347,12.6948907 L14.1602347,13.10816 L14.283968,13.10816 L14.283968,12.6324053 L13.292864,12.6324053 L13.292864,11.7780267 L13.1691307,11.7780267 L13.1648,12.6948907 Z M18.2490027,16.9408 C18.0825813,16.6073387 17.639616,15.751104 17.2016,15.1695573 C17.184896,15.224 17.1650987,15.2753493 17.1471573,15.3291733 C17.6192,15.9818667 18.072064,16.892544 18.176,17.1010347 C18.2007467,17.048448 18.2254933,16.9940053 18.2514773,16.9408 L18.2490027,16.9408 Z M14.9267627,21.1786667 C14.9663573,21.1440213 15.004096,21.10752 15.0436907,21.072256 C14.9199573,20.428224 14.7343573,19.5627093 14.6526933,19.2038827 C14.61248,19.2341973 14.5722667,19.2614187 14.5320533,19.2898773 C14.616192,19.6678827 14.8079787,20.5408213 14.9267627,21.1786667 Z M17.4472107,9.156736 C18.1011413,9.42276267 18.851584,9.78468267 19.0848213,9.899136 C19.074304,9.852736 19.0625493,9.806336 19.052032,9.759936 C18.697536,9.589184 18.0002987,9.26129067 17.422464,9.03485867 C17.4336,9.07259733 17.439168,9.11466667 17.4472107,9.15488 L17.4472107,9.156736 Z M18.214976,19.7613013 C18.908726,19.6960333 19.5965695,19.5785664 20.2726613,19.4098987 C20.0626847,19.8484484 19.8295304,20.2755192 19.5741867,20.6893013 L19.6669867,20.68064 C19.9351167,20.2500423 20.1792437,19.8049547 20.3982507,19.3474133 C19.6941072,19.5227053 18.9773795,19.6428839 18.2545707,19.7068587 C18.2415787,19.7235627 18.2273493,19.7408853 18.214976,19.7594453 L18.214976,19.7613013 Z M19.527168,17.3627307 C19.523456,17.3720107 19.5191253,17.380672 19.5154133,17.389952 C19.766592,17.310144 20.065408,17.204352 20.408768,17.0626773 C20.8139947,16.8950187 21.0961067,16.7675733 21.2878933,16.6766293 C21.160448,17.1424853 21.013824,17.5947307 20.8548267,18.0308907 L20.972992,17.98944 C21.13632,17.5464747 21.2823253,17.087424 21.41472,16.614144 C21.2229333,16.705088 20.94144,16.8319147 20.5355947,17.000192 C20.1390293,17.1622827 19.798144,17.2810667 19.527168,17.3608747 L19.527168,17.3627307 Z M16.0818133,5.576512 C16.5829333,5.64642133 17.14592,5.75221333 17.3754453,5.79613867 C17.353792,5.76273067 17.3302827,5.73056 17.309248,5.697152 C16.9875413,5.63528533 16.4635307,5.54434133 16.0298453,5.48989867 C16.047168,5.51773867 16.0644907,5.54805333 16.0818133,5.576512 Z M16.9089707,7.28712533 C17.474432,7.45230933 18.1234133,7.67441067 18.4104747,7.77463467 C18.393152,7.73256533 18.3739733,7.69111467 18.356032,7.65090133 C17.984832,7.523456 17.3729707,7.31867733 16.8681387,7.17762133 C16.882368,7.21288533 16.89536,7.25000533 16.9089707,7.28712533 L16.9089707,7.28712533 Z M21.43328,8.76078933 C21.1765333,9.21117867 20.713152,9.97213867 20.206464,10.5846187 C20.2107947,10.608128 20.2163627,10.6316373 20.2206933,10.6551467 C20.770688,10.0247253 21.282944,9.180864 21.5588693,8.698304 C21.4560162,8.3188465 21.3320906,7.94541743 21.1876693,7.57975467 L21.1072427,7.76535467 C21.2278827,8.083968 21.338624,8.41309867 21.43328,8.76078933 Z M16.2519467,21.9829333 C16.611392,22.009536 17.0283733,22.029952 17.441024,22.02624 C17.992256,22.0212907 18.3832533,22.0014933 18.6369067,21.9829333 C18.23168,22.4537387 17.817792,22.8230827 17.413184,23.0761173 L17.4323627,23.0761173 C17.8703787,22.8237013 18.3220053,22.4296107 18.762496,21.9173547 C18.5094613,21.9359147 18.1178453,21.955712 17.5666133,21.96128 C17.1335467,21.964992 16.6955307,21.9421013 16.32928,21.9136427 C16.3020587,21.939008 16.2766933,21.9600427 16.2519467,21.9829333 Z M16.8217387,19.2082133 C16.7295573,18.89888 16.4548693,17.9863467 16.221632,17.3670613 C16.1906987,17.4184107 16.1597653,17.4672853 16.1275947,17.5167787 C16.3750613,18.1892693 16.6565547,19.136448 16.717184,19.3412267 C16.7530667,19.2973013 16.7864747,19.2527573 16.8217387,19.2082133 L16.8217387,19.2082133 Z M14.367488,23.4838187 L17.7280853,25.55264 L17.9557547,25.55264 L14.4738987,23.40896 L14.367488,23.4838187 Z M9.068608,7.92064 C9.14965333,7.664512 9.23874133,7.41518933 9.33339733,7.17329067 C8.73329067,7.34033067 7.97233067,7.601408 7.65495467,7.71214933 C7.84610389,7.25732515 8.06277568,6.81365403 8.303936,6.38325333 C8.268672,6.39067733 8.231552,6.39872 8.19938133,6.40676267 C7.94987083,6.84942808 7.72615898,7.30614729 7.52936533,7.77463467 C7.84674133,7.66389333 8.60770133,7.40343467 9.207808,7.23639467 C9.116864,7.467776 9.03210667,7.70658133 8.953536,7.95095467 L9.068608,7.92064 Z M20.0530347,12.1646933 C20.0415985,10.8977587 19.8199927,9.6415043 19.397248,8.44712533 C19.8340267,7.79195733 20.258432,6.70186667 20.4706347,6.11908267 C20.2850347,5.80974933 20.0882987,5.51402667 19.879808,5.23191467 C19.866816,5.29378133 19.8525867,5.355648 19.8383573,5.41751467 C20.0159147,5.66498133 20.186048,5.91739733 20.3450453,6.18404267 C20.1328427,6.76930133 19.7084373,7.85444267 19.2716587,8.51208533 C19.6943486,9.7066925 19.9159519,10.963141 19.9274453,12.230272 C19.9274453,17.157952 17.3773013,20.6608427 13.8595627,23.0779733 L10.5187627,25.3051733 C10.4742187,25.3348693 10.4284373,25.3620907 10.3820373,25.387456 C10.473332,25.3465441 10.5610717,25.2981217 10.644352,25.242688 L13.985152,23.015488 C17.5028907,20.5958827 20.0530347,17.0954667 20.0530347,12.1646933 L20.0530347,12.1646933 Z M21.7853013,10.7151573 C21.8242773,11.0956373 21.847168,11.4909653 21.8595413,11.9048533 C21.4051984,12.3774956 20.9185807,12.8180149 20.4032,13.223232 C20.4032,13.2337493 20.4032,13.2442667 20.4032,13.2541653 C21.0422827,12.7932587 21.7147733,12.1238613 21.9888427,11.842368 C21.9783253,11.3882667 21.951104,10.9539627 21.904704,10.543168 C21.876864,10.5827627 21.8385067,10.641536 21.787776,10.7151573 L21.7853013,10.7151573 Z M21.6405333,15.0742827 C21.474112,15.1769813 21.1913813,15.3421653 20.8362667,15.5215787 C21.2544853,15.3180373 21.5823787,15.1262507 21.7679787,15.0117973 C21.8446933,14.5581084 21.9018169,14.099264 21.9393493,13.635264 L21.8088107,13.7472427 C21.7716907,14.1951573 21.717248,14.6387413 21.6405333,15.0742827 Z M5.10481067,11.816384 C5.30464,12.0421973 5.48219733,12.224704 5.63005867,12.367616 C5.63810133,12.6410667 5.65604267,12.9089493 5.679552,13.1718827 C5.72657067,13.2071467 5.77297067,13.2411733 5.81937067,13.2745813 C5.7872,12.9572053 5.76554667,12.6342613 5.757504,12.3038933 C5.60964267,12.1603627 5.43208533,11.9784747 5.232256,11.7526613 C4.88722888,11.3731188 4.57201012,10.9675125 4.289408,10.539456 C4.28136533,10.61184 4.27703467,10.6885547 4.27022933,10.762176 C4.52672894,11.1302215 4.80544029,11.4822779 5.10481067,11.816384 L5.10481067,11.816384 Z M6.59889067,12.2277973 C6.59889067,12.2680107 6.59889067,12.308224 6.59889067,12.3515307 C6.627968,12.3218347 6.670656,12.280384 6.722624,12.2277973 C6.722624,12.2067627 6.722624,12.185728 6.722624,12.1659307 C6.72382466,11.683281 6.75772272,11.2012671 6.82408533,10.7232 C7.03670743,10.5847107 7.25756797,10.4593016 7.48544,10.3476693 C7.2138553,10.4761275 6.95097774,10.6222394 6.698496,10.7850667 C6.63273349,11.2631738 6.59945543,11.7451889 6.59889067,12.2277973 Z M10.6152747,18.2851627 C10.3786664,17.9955589 10.1628322,17.689587 9.96938667,17.369536 C9.94897067,17.4227413 9.92917333,17.4784213 9.90752,17.5353387 C10.0836013,17.8182469 10.2776421,18.0895733 10.488448,18.347648 C10.3461547,18.8066987 10.0795093,19.6920107 9.98176,20.203648 C10.310272,20.5463893 10.655488,20.8711893 11.0124587,21.1792853 C11.0217387,21.1304107 11.0310187,21.07968 11.0409173,21.0289493 C10.718592,20.7462187 10.4055467,20.4517333 10.1073493,20.1411627 C10.206336,19.632 10.4729813,18.7442133 10.6152747,18.2851627 Z M7.25220267,8.496 C7.09139619,8.95441208 6.95855123,9.42215856 6.8544,9.89666133 C7.10557867,9.772928 7.95933867,9.36213333 8.64420267,9.09239467 C8.58769778,9.34769778 8.53861689,9.60712533 8.49696,9.87067733 L8.62069333,9.81685333 C8.66193778,9.55000178 8.71163733,9.28748089 8.769792,9.02929067 C8.084928,9.29717333 7.23178667,9.709824 6.97998933,9.83355733 C7.08268277,9.36460597 7.21345701,8.90224774 7.37160533,8.44898133 C7.329536,8.46568533 7.28746667,8.481152 7.25220267,8.496 Z M7.84426667,16.9420373 C7.63960868,16.5273349 7.46108429,16.1002401 7.30973867,15.6632533 C7.64567467,15.1002667 8.28970667,14.42592 8.68317867,14.0336853 C8.621312,13.7181653 8.56625067,13.39584 8.52913067,13.0667093 L8.41034667,13.180544 C8.44746667,13.4915271 8.49654756,13.796736 8.55758933,14.0961707 C8.16411733,14.4859307 7.52008533,15.162752 7.18414933,15.7263573 C7.34676033,16.1970864 7.54084079,16.6563481 7.76507733,17.1010347 C7.7824,17.0663893 7.81085867,17.0107093 7.84426667,16.9420373 Z M9.32040533,4.72213333 C9.05066667,5.06858667 8.79886933,5.426176 8.56501333,5.79490133 C8.82423467,5.74478933 9.51281067,5.61610667 10.0535253,5.54743467 C9.939072,5.726848 9.83018667,5.91863467 9.72501333,6.11227733 L9.822144,6.10114133 C9.93597867,5.88543289 10.0549689,5.67921067 10.1791147,5.48247467 C9.6384,5.54929067 8.95044267,5.678592 8.69060267,5.72994133 C8.91208533,5.38101333 9.15150933,5.04136533 9.40578133,4.71223467 L9.32040533,4.72213333 Z M8.51057067,19.7421227 C7.59391355,19.7005709 6.68368334,19.5677254 5.79338667,19.3455573 C5.81070933,19.38144 5.82865067,19.4154667 5.84597333,19.4507307 C6.73655657,19.6622885 7.64634692,19.7827233 8.56130133,19.810176 C8.54397867,19.787904 8.5248,19.7643947 8.51057067,19.7421227 Z M8.625024,21.9637547 C8.07317333,21.9581867 7.682176,21.9383893 7.42852267,21.9198293 C7.45079467,21.9458133 7.47368533,21.9699413 7.49595733,21.9953067 C7.743424,22.009536 8.07131733,22.0219093 8.49943467,22.02624 C9.18602078,22.0253351 9.87192615,21.9829825 10.553408,21.8994133 L10.5045333,21.8592 C9.8804936,21.929353 9.25299436,21.96426 8.625024,21.9637547 L8.625024,21.9637547 Z M9.22327467,19.3412267 C9.23317333,19.3072 9.24987733,19.2509013 9.27153067,19.1797547 C8.96584597,18.7979862 8.68243832,18.3989019 8.42272,17.9844907 C8.64482133,17.4320213 9.122432,16.6036267 9.36309333,16.1977813 C9.2184533,15.8644153 9.09084349,15.5239159 8.98075733,15.1776 C8.94734933,15.2215253 8.91456,15.2679253 8.881152,15.314944 C8.98756267,15.6422187 9.10634667,15.9583573 9.237504,16.2602667 C8.99684267,16.6654933 8.519232,17.4976 8.29713067,18.046976 C8.5786236,18.4972373 8.88793933,18.9294941 9.22327467,19.3412267 L9.22327467,19.3412267 Z M7.02020267,14.6647253 C6.90201841,14.1695111 6.81931953,13.6664952 6.772736,13.1595093 C7.36913067,12.4962987 8.16906667,11.977856 8.463552,11.7984427 C8.463552,11.5163307 8.47386311,11.2360747 8.49448533,10.9576747 C8.45179733,10.981184 8.41034667,11.005312 8.370752,11.0300587 C8.35136711,11.3051591 8.341056,11.5821156 8.33981867,11.860928 C8.04533333,12.04096 7.24539733,12.558784 6.64900267,13.2219947 C6.69782017,13.755892 6.78695627,14.2853315 6.915648,14.8057813 L7.02020267,14.6647253 Z M5.88928,9.67146667 C5.83607467,9.912128 5.79400533,10.153408 5.75626667,10.3934507 C5.78843733,10.4342827 5.81813333,10.4757333 5.85277867,10.517184 C5.89402311,10.2156871 5.94805333,9.91336533 6.01486933,9.61021867 C5.62992351,8.95836455 5.29209447,8.27981196 5.003968,7.57975467 C4.97922133,7.64162133 4.957568,7.70843733 4.93405867,7.77154133 C5.20871741,8.42591464 5.52787131,9.06070845 5.88928,9.67146667 L5.88928,9.67146667 Z M10.3616213,3.53614933 C10.1360142,3.765056 9.91906844,4.00138667 9.710784,4.24514133 C10.2128278,4.18687942 10.7180367,4.16022422 11.223424,4.16533333 C11.0637988,4.30233305 10.9129581,4.44924771 10.7717973,4.60520533 L10.837376,4.60520533 C10.9960572,4.42627485 11.1670173,4.25862236 11.3490133,4.10346667 C10.8436197,4.09886815 10.3384298,4.12572896 9.83637333,4.18389333 C10.0442453,3.94075733 10.2613973,3.703808 10.4872107,3.47552 C10.841088,3.11607467 10.805824,2.60938667 10.805824,2.60938667 C10.763136,2.64465067 10.7229227,2.68177067 10.6820907,2.71765333 C10.6802347,2.85066667 10.6523947,3.24290133 10.3616213,3.53738667 L10.3616213,3.53614933 Z M6.73066667,7.144832 C6.627968,7.37250133 6.53454933,7.603264 6.44608,7.83464533 C6.46464,7.872384 6.48381867,7.91074133 6.50299733,7.94786133 C6.61002667,7.657088 6.72757333,7.367552 6.856256,7.081728 C6.63387377,6.47759496 6.45240063,5.85918082 6.31306667,5.23067733 C6.27656533,5.28017067 6.24253867,5.33152 6.20727467,5.381632 C6.34463015,5.97974925 6.51943867,6.56864322 6.73066667,7.144832 L6.73066667,7.144832 Z M9.319168,3.32456533 C9.18801067,3.45943467 9.06304,3.59925333 8.938688,3.739072 C8.938688,3.761344 8.938688,3.78609067 8.944256,3.80712533 C9.10510933,3.62070044 9.27194311,3.43881244 9.44475733,3.26146133 C9.47940267,2.72260267 9.55982933,2.18869333 9.59076267,2 C9.56539733,2.020416 9.515904,2.06186667 9.456512,2.116928 C9.421248,2.33902933 9.35072,2.827776 9.31854933,3.32456533 L9.319168,3.32456533 Z M7.98408533,4.94052267 C7.86344533,5.11313067 7.74837333,5.28821333 7.63639467,5.465152 C7.64381867,5.49794133 7.65186133,5.53073067 7.659904,5.56228267 C7.80219733,5.33048889 7.95212089,5.10220089 8.10967467,4.87741867 C8.03705651,4.38648201 7.989769,3.89213134 7.968,3.39633067 C7.92654933,3.43592533 7.88695467,3.47799467 7.84426667,3.520064 C7.87210667,4.08676267 7.929024,4.57550933 7.98408533,4.94052267 Z" id="Shape" fill="url(#linearGradient-3)" fill-rule="nonzero"></path>
            </g>
        </g>
    </g>
</svg>