<svg width="19px" height="16px" viewBox="0 0 19 16" version="1.1" xmlns="http://www.w3.org/2000/svg" xmlns:xlink="http://www.w3.org/1999/xlink">
    <defs>
        <path d="M2.5,10.1666667 L0.333333333,10.1666667 L0.333333333,15.5833333 L5.75,15.5833333 L5.75,13.4166667 L2.5,13.4166667 L2.5,10.1666667 L2.5,10.1666667 Z M0.333333333,5.83333333 L2.5,5.83333333 L2.5,2.58333333 L5.75,2.58333333 L5.75,0.416666667 L0.333333333,0.416666667 L0.333333333,5.83333333 L0.333333333,5.83333333 Z M16.5833333,13.4166667 L13.3333333,13.4166667 L13.3333333,15.5833333 L18.75,15.5833333 L18.75,10.1666667 L16.5833333,10.1666667 L16.5833333,13.4166667 L16.5833333,13.4166667 Z M13.3333333,0.416666667 L13.3333333,2.58333333 L16.5833333,2.58333333 L16.5833333,5.83333333 L18.75,5.83333333 L18.75,0.416666667 L13.3333333,0.416666667 L13.3333333,0.416666667 Z" id="path-1"></path>
        <rect id="path-3" x="0" y="0" width="54.1666667" height="54.1666667"></rect>
    </defs>
    <g id="Desktop-UI" stroke="none" stroke-width="1" fill="none" fill-rule="evenodd">
        <g id="Class-Overview" transform="translate(-881.000000, -955.000000)">
            <g id="video_full_screen_icon" transform="translate(881.000000, 955.000000)">
                <mask id="mask-2" fill="white">
                    <use xlink:href="#path-1"></use>
                </mask>
                <g id="Mask"></g>
                <g id="🎨-Color" mask="url(#mask-2)">
                    <g transform="translate(-18.083333, -19.083333)">
                        <mask id="mask-4" fill="white">
                            <use xlink:href="#path-3"></use>
                        </mask>
                        <use id="Black" stroke="none" fill="#FFFFFF" fill-rule="evenodd" xlink:href="#path-3"></use>
                    </g>
                </g>
            </g>
        </g>
    </g>
</svg>