<svg width="18px" height="17px" viewBox="0 0 18 17" version="1.1" xmlns="http://www.w3.org/2000/svg" xmlns:xlink="http://www.w3.org/1999/xlink">
    <defs>
        <linearGradient x1="50%" y1="95.2031591%" x2="100%" y2="-11.0391891%" id="linearGradient-1">
            <stop stop-color="#E15B11" offset="0%"></stop>
            <stop stop-color="#EB9845" offset="51.1691434%"></stop>
            <stop stop-color="#EF7D3F" offset="100%"></stop>
        </linearGradient>
        <linearGradient x1="42.2685149%" y1="143.877475%" x2="46.1750882%" y2="-75.6690145%" id="linearGradient-2">
            <stop stop-color="#E15B11" offset="0%"></stop>
            <stop stop-color="#EB9845" offset="54%"></stop>
            <stop stop-color="#EF7D3F" offset="100%"></stop>
        </linearGradient>
    </defs>
    <g id="Mobile-UI-" stroke="none" stroke-width="1" fill="none" fill-rule="evenodd">
        <g id="Nav" transform="translate(-173.000000, -236.000000)">
            <g id="mobile_nav_cart_icon" transform="translate(173.000000, 236.000000)">
                <path d="M3.833328,0 L1.81188398e-13,0 L1.81188398e-13,1.6 L2.57472,1.6 L4.78976,11.74208 L4.8,11.74208 L4.8,12 L15.2,12 L15.2,11.80152 L16.95456,4.07276 L17.22464,3.2 L4.52416,3.2 L4.06788,1.110816 M15.18952,4.8 L4.8736,4.8 L6.096648,10.4 L13.91824,10.4" id="Shape" fill="url(#linearGradient-1)"></path>
                <path d="M7.2,17 C8.08368,17 8.8,16.28368 8.8,15.4 C8.8,14.51632 8.08368,13.8 7.2,13.8 C6.316344,13.8 5.6,14.51632 5.6,15.4 C5.6,16.28368 6.316344,17 7.2,17 Z" id="Path" fill="url(#linearGradient-2)" fill-rule="nonzero"></path>
                <path d="M14.4,15.4 C14.4,16.28368 13.68368,17 12.8,17 C11.91632,17 11.2,16.28368 11.2,15.4 C11.2,14.51632 11.91632,13.8 12.8,13.8 C13.68368,13.8 14.4,14.51632 14.4,15.4 Z" id="Path" fill="url(#linearGradient-2)" fill-rule="nonzero"></path>
            </g>
        </g>
    </g>
</svg>