<?xml version="1.0" encoding="UTF-8"?>
<svg width="38px" height="38px" viewBox="0 0 38 38" version="1.1" xmlns="http://www.w3.org/2000/svg" xmlns:xlink="http://www.w3.org/1999/xlink">
    <title>AD2FE2EC-63F8-49AE-A6AC-B9949817AF23</title>
    <defs>
        <linearGradient x1="46.9200132%" y1="100%" x2="46.9200132%" y2="-52.564239%" id="linearGradient-1">
            <stop stop-color="#E15B11" offset="0%"></stop>
            <stop stop-color="#EB9845" offset="54%"></stop>
            <stop stop-color="#EF7D3F" offset="100%"></stop>
        </linearGradient>
    </defs>
    <g id="Desktop-UI" stroke="none" stroke-width="1" fill="none" fill-rule="evenodd">
        <g id="Class-Overview" transform="translate(-438.000000, -2312.000000)">
            <g id="Cards/Home/Snapshot-Copy-2" transform="translate(123.000000, 1923.000000)">
                <g id="home_cart_icon_circle" transform="translate(315.000000, 389.000000)">
                    <circle id="Oval" fill="url(#linearGradient-1)" fill-rule="nonzero" cx="19" cy="19" r="19"></circle>
                    <g id="gg-shopping-cart" transform="translate(10.000000, 11.000000)" fill="#FFFFFF">
                        <path d="M3.833328,0 L0,0 L0,1.6 L2.57472,1.6 L4.78976,11.74208 L4.8,11.74208 L4.8,12 L15.2,12 L15.2,11.80152 L16.95456,4.07276 L17.22464,3.2 L4.52416,3.2 L4.06788,1.110816 L3.833328,0 Z M15.18952,4.8 L4.8736,4.8 L6.096648,10.4 L13.91824,10.4 L15.18952,4.8 Z" id="Shape"></path>
                        <path d="M7.2,16 C8.08368,16 8.8,15.28368 8.8,14.4 C8.8,13.51632 8.08368,12.8 7.2,12.8 C6.316344,12.8 5.6,13.51632 5.6,14.4 C5.6,15.28368 6.316344,16 7.2,16 Z" id="Path" fill-rule="nonzero"></path>
                        <path d="M14.4,14.4 C14.4,15.28368 13.68368,16 12.8,16 C11.91632,16 11.2,15.28368 11.2,14.4 C11.2,13.51632 11.91632,12.8 12.8,12.8 C13.68368,12.8 14.4,13.51632 14.4,14.4 Z" id="Path" fill-rule="nonzero"></path>
                    </g>
                </g>
            </g>
        </g>
    </g>
</svg>