<svg width="27px" height="27px" viewBox="0 0 27 27" version="1.1" xmlns="http://www.w3.org/2000/svg" xmlns:xlink="http://www.w3.org/1999/xlink">
    <g id="Desktop-UI" stroke="none" stroke-width="1" fill="none" fill-rule="evenodd">
        <g id="Class-Overview" transform="translate(-188.000000, -950.000000)">
            <g id="class_details_video_volume_icon" transform="translate(188.000000, 950.000000)">
                <rect id="Rectangle" x="0" y="0" width="27" height="27"></rect>
                <path d="M25,13 C25,17.4183 21.4183,21 17,21 L17,19 C20.3137,19 23,16.3137 23,13 C23,9.68629 20.3137,7 17,7 L17,5 C21.4183,5 25,8.58172 25,13 Z" id="Path" fill="#FFFFFF" fill-rule="nonzero"></path>
                <path d="M21,13 C21,15.2091 19.2091,17 17,17 L17,15 C18.1046,15 19,14.1046 19,13 C19,11.8954 18.1046,11 17,11 L17,9 C19.2091,9 21,10.79086 21,13 Z" id="Path" fill="#FFFFFF" fill-rule="nonzero"></path>
                <path d="M10,17 L16,21 L16,5 L10,9 L6,9 C3.79086,9 2,10.79086 2,13 C2,15.2091 3.79086,17 6,17 L10,17 Z M6,11 L10,11 L14,8.5 L14,17.5 L10,15 L6,15 C4.89543,15 4,14.1046 4,13 C4,11.8954 4.89543,11 6,11 Z" id="Shape" fill="#FFFFFF"></path>
            </g>
        </g>
    </g>
</svg>